<svg width="25" height="26" viewBox="0 0 25 26" fill="none" xmlns="http://www.w3.org/2000/svg">
<path d="M14.6875 18.354C14.6199 18.7785 14.5108 19.1949 14.3618 19.5972L15.6846 20.8201C15.5016 21.2173 15.2874 21.5987 15.0441 21.9606L13.3457 21.402C13.0778 21.7359 12.7779 22.0418 12.4505 22.3149L12.998 24.0478C12.6432 24.2958 12.2693 24.5144 11.8801 24.7012L10.6815 23.3516C10.292 23.5021 9.88515 23.6137 9.46309 23.684L9.08581 25.4668C8.87246 25.484 8.65826 25.5 8.44026 25.5C8.22226 25.5 8.00806 25.484 7.79428 25.4668L7.41701 23.684C7.001 23.615 6.59282 23.5036 6.19857 23.3516L4.99998 24.7012C4.61069 24.5145 4.23684 24.296 3.88209 24.0478L4.42963 22.3149C4.10242 22.0417 3.80267 21.7358 3.53481 21.402L1.83643 21.9606C1.59329 21.5986 1.37911 21.2172 1.19595 20.8201L2.51874 19.5972C2.3697 19.195 2.26058 18.7785 2.19301 18.354L0.445617 17.9691C0.428718 17.751 0.413086 17.5325 0.413086 17.31C0.413086 17.0876 0.428718 16.8691 0.445617 16.651L2.19301 16.266C2.26063 15.8416 2.36976 15.4251 2.51874 15.0229L1.19595 13.8C1.38142 13.4017 1.59266 13.019 1.83643 12.6595L3.53481 13.2181C3.8027 12.8841 4.1026 12.5783 4.43005 12.3051L3.88252 10.5723C4.23736 10.3243 4.6112 10.1057 5.0004 9.91885L6.19899 11.2685C6.59323 11.1164 7.00142 11.0051 7.41743 10.9361L7.79471 9.15331C8.00806 9.13607 8.22226 9.12012 8.44026 9.12012C8.65826 9.12012 8.87246 9.13607 9.08624 9.15331L9.46351 10.9361C9.87952 11.0051 10.2877 11.1165 10.682 11.2685L11.8805 9.91885C12.2709 10.1081 12.6461 10.3236 12.9984 10.5723L12.4509 12.3051C12.7782 12.5785 13.078 12.8844 13.3457 13.2185L15.0441 12.6599C15.2872 13.0219 15.5014 13.4033 15.6846 13.8004L14.3618 15.0233C14.5092 15.4208 14.6186 15.8359 14.6875 16.2665L16.4349 16.6514C16.4518 16.8691 16.4674 17.0876 16.4674 17.31C16.4674 17.5325 16.4518 17.751 16.4349 17.9691L14.6875 18.354ZM8.44026 12.9996C6.10689 12.9996 4.21543 14.9294 4.21543 17.31C4.21543 19.6907 6.10689 21.6205 8.44026 21.6205C10.7736 21.6205 12.6651 19.6907 12.6651 17.31C12.6651 14.9294 10.7736 12.9996 8.44026 12.9996Z" fill="#3A55A6"/>
<path d="M20.5481 6.2351C20.4832 6.45601 20.3967 6.66973 20.29 6.87305L20.9571 8.17741C20.7322 8.4677 20.4748 8.73025 20.1903 8.95976L18.9119 8.27914C18.7128 8.38836 18.5032 8.4766 18.2866 8.54251L17.854 9.94773C17.6757 9.96928 17.4957 9.98307 17.3124 9.98307C17.129 9.98307 16.949 9.96928 16.7712 9.94816L16.3385 8.54294C16.1219 8.47685 15.9125 8.38861 15.7133 8.27957L14.4348 8.96019C14.1503 8.73068 13.893 8.46813 13.668 8.17784L14.3351 6.87349C14.2281 6.67033 14.1416 6.45658 14.077 6.23553L12.6997 5.79414C12.6786 5.61224 12.665 5.42861 12.665 5.24154C12.665 5.05446 12.6786 4.87083 12.6993 4.68936L14.0766 4.24797C14.142 4.02512 14.2286 3.81132 14.3347 3.61002L13.6676 2.30566C13.8925 2.01538 14.1499 1.75282 14.4344 1.52331L15.7128 2.20394C15.912 2.09471 16.1215 2.00647 16.3381 1.94056L16.7707 0.535346C16.949 0.513794 17.129 0.5 17.3124 0.5C17.4957 0.5 17.6757 0.513794 17.8535 0.534915L18.2862 1.94013C18.5046 2.00695 18.7141 2.09531 18.9114 2.2035L20.1899 1.52288C20.4744 1.75239 20.7317 2.01494 20.9567 2.30523L20.2896 3.60959C20.3961 3.81088 20.4822 4.02469 20.5477 4.24754L21.925 4.68893C21.9461 4.87083 21.9597 5.05446 21.9597 5.24154C21.9597 5.42861 21.9461 5.61224 21.9254 5.79371L20.5481 6.2351ZM17.3124 3.51734C16.8642 3.51734 16.4343 3.699 16.1174 4.02235C15.8005 4.3457 15.6224 4.78425 15.6224 5.24154C15.6224 5.69882 15.8005 6.13738 16.1174 6.46073C16.4343 6.78407 16.8642 6.96573 17.3124 6.96573C17.7605 6.96573 18.1904 6.78407 18.5073 6.46073C18.8242 6.13738 19.0023 5.69882 19.0023 5.24154C19.0023 4.78425 18.8242 4.3457 18.5073 4.02235C18.1904 3.699 17.7605 3.51734 17.3124 3.51734Z" fill="#F7B636"/>
<path d="M23.962 15.9623C23.8981 16.1988 23.806 16.4263 23.6878 16.6399L24.1081 17.5425C23.9173 17.7911 23.6977 18.0151 23.4541 18.2098L22.5695 17.7809C22.3601 17.9016 22.1371 17.9955 21.9053 18.0606L21.5766 19.0038C21.4249 19.0227 21.2716 19.0352 21.1148 19.0352C20.9581 19.0352 20.8047 19.0227 20.6531 19.0038L20.3244 18.0606C20.0926 17.9954 19.8696 17.9015 19.6602 17.7809L18.7756 18.2098C18.532 18.0151 18.3124 17.7911 18.1216 17.5425L18.5419 16.6399C18.4237 16.4265 18.3316 16.199 18.2677 15.9627L17.3433 15.6274C17.3248 15.4722 17.3125 15.3157 17.3125 15.1558C17.3125 14.9959 17.3248 14.8394 17.3433 14.6847L18.2677 14.3493C18.3316 14.113 18.4237 13.8855 18.5419 13.6721L18.1216 12.7695C18.3124 12.521 18.532 12.2969 18.7756 12.1023L19.6602 12.5311C19.8695 12.4105 20.0926 12.3165 20.3244 12.2514L20.6531 11.3083C20.8047 11.2889 20.9581 11.2764 21.1148 11.2764C21.2716 11.2764 21.4249 11.2889 21.5766 11.3078L21.9053 12.251C22.1371 12.3162 22.3601 12.4101 22.5695 12.5307L23.4541 12.1018C23.6977 12.2965 23.9173 12.5205 24.1081 12.7691L23.6878 13.6717C23.8052 13.8829 23.8969 14.1101 23.962 14.3493L24.8863 14.6847C24.9049 14.8394 24.9172 14.9959 24.9172 15.1558C24.9172 15.3157 24.9049 15.4722 24.8863 15.6269L23.962 15.9623ZM21.1148 13.8627C20.7787 13.8627 20.4563 13.9989 20.2186 14.2414C19.9809 14.4839 19.8474 14.8128 19.8474 15.1558C19.8474 15.4988 19.9809 15.8277 20.2186 16.0702C20.4563 16.3127 20.7787 16.449 21.1148 16.449C21.451 16.449 21.7734 16.3127 22.0111 16.0702C22.2488 15.8277 22.3823 15.4988 22.3823 15.1558C22.3823 14.8128 22.2488 14.4839 22.0111 14.2414C21.7734 13.9989 21.451 13.8627 21.1148 13.8627Z" fill="#29BB93"/>
<path d="M25 1.371L22.4731 0.855469L21.9678 3.43314L22.7963 3.60254L23.024 2.44216C23.4356 3.31576 23.6494 4.27255 23.6497 5.24182C23.6553 6.71178 23.1644 8.13883 22.2598 9.2829L22.9193 9.82214C23.9377 8.5215 24.4932 6.90658 24.4947 5.24182C24.4947 4.1129 24.2391 2.99994 23.7528 1.99559L24.8344 2.21629L25 1.371ZM9.16154 4.93707L8.56415 5.54657L9.1383 6.13237C8.90601 6.11535 8.67325 6.10586 8.44036 6.10392C6.82938 6.10228 5.23785 6.46292 3.77902 7.16019C2.32018 7.85746 1.0299 8.87421 0 10.1381L0.648934 10.6903C1.59961 9.52349 2.79067 8.58485 4.13735 7.94114C5.48403 7.29744 6.95322 6.9645 8.44036 6.96601C8.65541 6.96601 8.87003 6.97852 9.08465 6.99231L8.56415 7.52336L9.16154 8.13286L10.7277 6.53497L9.16154 4.93707Z" fill="#3A55A6"/>
</svg>
