<svg width="25" height="26" viewBox="0 0 25 26" fill="none" xmlns="http://www.w3.org/2000/svg">
<path d="M21.7692 15.3857V3.91467C21.7692 3.09941 21.1084 2.43612 20.2962 2.43612H18.4045V1.71466C18.4045 1.04489 17.8611 0.5 17.1931 0.5C16.525 0.5 15.9831 1.04489 15.9831 1.71466V2.43612H14.1984V1.71466C14.1984 1.04489 13.655 0.5 12.987 0.5C12.3189 0.5 11.7769 1.04489 11.7769 1.71466V2.43612H9.99229V1.71466C9.99229 1.04489 9.44885 0.5 8.78083 0.5C8.1128 0.5 7.57078 1.04489 7.57078 1.71466V2.43612H5.78614V1.71466C5.78614 1.04489 5.24271 0.5 4.57468 0.5C3.90665 0.5 3.36463 1.04489 3.36463 1.71466V2.43612H1.47295C0.660769 2.43612 0 3.09941 0 3.91467V22.2646C0 23.0807 0.660719 23.7446 1.47295 23.7446H15.8577C16.8174 24.8212 18.2113 25.5 19.7604 25.5C22.6492 25.5 24.9994 23.1415 24.9994 20.2425C24.9994 18.0567 23.6639 16.1784 21.7692 15.3857ZM5.08052 2.43612H4.07026V1.71466C4.07026 1.43543 4.29651 1.20831 4.57468 1.20831C4.85285 1.20831 5.08052 1.43543 5.08052 1.71466V2.43612ZM9.28666 2.43612H8.27645V1.71466C8.27645 1.43543 8.50271 1.20831 8.78088 1.20831C9.05904 1.20831 9.28671 1.43543 9.28671 1.71466V2.43612H9.28666ZM13.4928 2.43612H12.4825V1.71466C12.4825 1.43543 12.7088 1.20831 12.987 1.20831C13.2651 1.20831 13.4928 1.43543 13.4928 1.71466V2.43612ZM16.6887 1.71466C16.6887 1.43543 16.9149 1.20831 17.1931 1.20831C17.4713 1.20831 17.6989 1.43543 17.6989 1.71466V2.43612H16.6887V1.71466Z" fill="#ECEFF1"/>
<path d="M15.4147 17.309C15.3499 17.249 15.265 17.2158 15.1768 17.2158H13.2581C13.1645 17.2158 13.0748 17.2531 13.0086 17.3196C12.9424 17.386 12.9053 17.476 12.9053 17.57V19.496C12.9053 19.59 12.9424 19.68 13.0086 19.7465C13.0748 19.8129 13.1645 19.8502 13.2581 19.8502H14.5371C14.606 18.9142 14.92 18.0456 15.4147 17.309Z" fill="#8497CE"/>
<path d="M20.2963 2.43555H16.6887V3.53262C16.6887 3.81185 16.9149 4.03896 17.1931 4.03896C17.2394 4.03896 17.2853 4.04812 17.3281 4.06592C17.3709 4.08372 17.4098 4.10981 17.4426 4.14269C17.4754 4.17558 17.5013 4.21462 17.5191 4.25759C17.5368 4.30056 17.5459 4.34661 17.5459 4.39312C17.5459 4.43963 17.5368 4.48568 17.5191 4.52865C17.5013 4.57162 17.4754 4.61066 17.4426 4.64355C17.4098 4.67643 17.3709 4.70252 17.3281 4.72032C17.2853 4.73812 17.2394 4.74728 17.1931 4.74728C16.5259 4.74728 15.9831 4.20238 15.9831 3.53262V2.43555H12.4825V3.53262C12.4825 3.81185 12.7088 4.03896 12.987 4.03896C13.0333 4.03896 13.0792 4.04812 13.122 4.06592C13.1648 4.08372 13.2037 4.10981 13.2364 4.14269C13.2692 4.17558 13.2952 4.21462 13.3129 4.25759C13.3307 4.30056 13.3398 4.34661 13.3398 4.39312C13.3398 4.43963 13.3307 4.48568 13.3129 4.52865C13.2952 4.57162 13.2692 4.61066 13.2364 4.64355C13.2037 4.67643 13.1648 4.70252 13.122 4.72032C13.0792 4.73812 13.0333 4.74728 12.987 4.74728C12.3197 4.74728 11.7769 4.20238 11.7769 3.53262V2.43555H8.2764V3.53262C8.2764 3.81185 8.50266 4.03896 8.78083 4.03896C8.82716 4.03896 8.87304 4.04812 8.91584 4.06592C8.95865 4.08372 8.99754 4.10981 9.0303 4.14269C9.06306 4.17558 9.08905 4.21462 9.10678 4.25759C9.12451 4.30056 9.13364 4.34661 9.13364 4.39312C9.13364 4.43963 9.12451 4.48568 9.10678 4.52865C9.08905 4.57162 9.06306 4.61066 9.0303 4.64355C8.99754 4.67643 8.95865 4.70252 8.91584 4.72032C8.87304 4.73812 8.82716 4.74728 8.78083 4.74728C8.1136 4.74728 7.57078 4.20238 7.57078 3.53262V2.43555H4.07026V3.53262C4.07026 3.81185 4.29651 4.03896 4.57468 4.03896C4.62101 4.03896 4.66689 4.04812 4.7097 4.06592C4.7525 4.08372 4.7914 4.10981 4.82416 4.14269C4.85692 4.17558 4.88291 4.21462 4.90064 4.25759C4.91837 4.30056 4.9275 4.34661 4.9275 4.39312C4.9275 4.43963 4.91837 4.48568 4.90064 4.52865C4.88291 4.57162 4.85692 4.61066 4.82416 4.64355C4.7914 4.67643 4.7525 4.70252 4.7097 4.72032C4.66689 4.73812 4.62101 4.74728 4.57468 4.74728C3.90746 4.74728 3.36463 4.20238 3.36463 3.53262V2.43555H1.47295C0.660769 2.43555 0 3.09883 0 3.9141V6.76379H21.7692V3.9141C21.7692 3.09883 21.1084 2.43555 20.2962 2.43555H20.2963Z" fill="#F7B636"/>
<path d="M20.2966 2.43555H19.5405C20.3527 2.43555 21.0135 3.09883 21.0135 3.9141V6.76379H21.7695V3.9141C21.7695 3.09883 21.1088 2.43555 20.2966 2.43555Z" fill="#C88500"/>
<path d="M8.34188 17.2139H6.42313C6.22827 17.2139 6.07031 17.3724 6.07031 17.568V19.4941C6.07031 19.6897 6.22827 19.8482 6.42313 19.8482H8.34188C8.53673 19.8482 8.69469 19.6897 8.69469 19.4941V17.568C8.69469 17.3724 8.53673 17.2139 8.34188 17.2139Z" fill="#8497CE"/>
<path d="M4.92391 13.0576H3.00516C2.8103 13.0576 2.65234 13.2162 2.65234 13.4118V15.3378C2.65234 15.5334 2.8103 15.692 3.00516 15.692H4.92391C5.11876 15.692 5.27672 15.5334 5.27672 15.3378V13.4118C5.27672 13.2162 5.11876 13.0576 4.92391 13.0576Z" fill="#8497CE"/>
<path d="M4.92391 8.89844H3.00516C2.8103 8.89844 2.65234 9.057 2.65234 9.25259V11.1786C2.65234 11.3742 2.8103 11.5328 3.00516 11.5328H4.92391C5.11876 11.5328 5.27672 11.3742 5.27672 11.1786V9.25259C5.27672 9.057 5.11876 8.89844 4.92391 8.89844Z" fill="#8497CE"/>
<path d="M4.92391 17.2139H3.00516C2.8103 17.2139 2.65234 17.3724 2.65234 17.568V19.4941C2.65234 19.6897 2.8103 19.8482 3.00516 19.8482H4.92391C5.11876 19.8482 5.27672 19.6897 5.27672 19.4941V17.568C5.27672 17.3724 5.11876 17.2139 4.92391 17.2139Z" fill="#8497CE"/>
<path d="M15.1768 13.0576H13.2581C13.0632 13.0576 12.9053 13.2162 12.9053 13.4118V15.3378C12.9053 15.5334 13.0632 15.692 13.2581 15.692H15.1768C15.3717 15.692 15.5297 15.5334 15.5297 15.3378V13.4118C15.5297 13.2162 15.3717 13.0576 15.1768 13.0576Z" fill="#8497CE"/>
<path d="M13.2591 15.692H15.1778C15.2714 15.692 15.3611 15.6547 15.4273 15.5883C15.4935 15.5218 15.5306 15.4318 15.5306 15.3378V13.4118C15.5306 13.3178 15.4935 13.2278 15.4273 13.1613C15.3611 13.0949 15.2714 13.0576 15.1778 13.0576H15.0978C15.1015 13.078 15.1037 13.099 15.1037 13.1204V15.0465C15.1037 15.1404 15.0665 15.2305 15.0003 15.2969C14.9342 15.3633 14.8444 15.4006 14.7509 15.4006H12.9121C12.9267 15.4823 12.9695 15.5562 13.0329 15.6095C13.0963 15.6628 13.1764 15.692 13.2591 15.692Z" fill="#3A55A6"/>
<path d="M15.1768 8.89844H13.2581C13.0632 8.89844 12.9053 9.057 12.9053 9.25259V11.1786C12.9053 11.3742 13.0632 11.5328 13.2581 11.5328H15.1768C15.3717 11.5328 15.5297 11.3742 15.5297 11.1786V9.25259C15.5297 9.057 15.3717 8.89844 15.1768 8.89844Z" fill="#8497CE"/>
<path d="M18.5948 8.89844H16.6761C16.4812 8.89844 16.3232 9.057 16.3232 9.25259V11.1786C16.3232 11.3742 16.4812 11.5328 16.6761 11.5328H18.5948C18.7897 11.5328 18.9476 11.3742 18.9476 11.1786V9.25259C18.9476 9.057 18.7897 8.89844 18.5948 8.89844Z" fill="#8497CE"/>
<path d="M11.7598 8.89844H9.84109C9.64624 8.89844 9.48828 9.057 9.48828 9.25259V11.1786C9.48828 11.3742 9.64624 11.5328 9.84109 11.5328H11.7598C11.9547 11.5328 12.1127 11.3742 12.1127 11.1786V9.25259C12.1127 9.057 11.9547 8.89844 11.7598 8.89844Z" fill="#8497CE"/>
<path d="M11.7598 13.0576H9.84109C9.64624 13.0576 9.48828 13.2162 9.48828 13.4118V15.3378C9.48828 15.5334 9.64624 15.692 9.84109 15.692H11.7598C11.9547 15.692 12.1127 15.5334 12.1127 15.3378V13.4118C12.1127 13.2162 11.9547 13.0576 11.7598 13.0576Z" fill="#8497CE"/>
<path d="M8.34188 13.0576H6.42313C6.22827 13.0576 6.07031 13.2162 6.07031 13.4118V15.3378C6.07031 15.5334 6.22827 15.692 6.42313 15.692H8.34188C8.53673 15.692 8.69469 15.5334 8.69469 15.3378V13.4118C8.69469 13.2162 8.53673 13.0576 8.34188 13.0576Z" fill="#8497CE"/>
<path d="M8.34188 8.89844H6.42313C6.22827 8.89844 6.07031 9.057 6.07031 9.25259V11.1786C6.07031 11.3742 6.22827 11.5328 6.42313 11.5328H8.34188C8.53673 11.5328 8.69469 11.3742 8.69469 11.1786V9.25259C8.69469 9.057 8.53673 8.89844 8.34188 8.89844Z" fill="#8497CE"/>
<path d="M11.7598 17.2139H9.84109C9.64624 17.2139 9.48828 17.3724 9.48828 17.568V19.4941C9.48828 19.6897 9.64624 19.8482 9.84109 19.8482H11.7598C11.9547 19.8482 12.1127 19.6897 12.1127 19.4941V17.568C12.1127 17.3724 11.9547 17.2139 11.7598 17.2139Z" fill="#8497CE"/>
<path d="M4.92392 8.89941H4.84393C4.84756 8.9198 4.84978 8.94075 4.84978 8.9622V10.8883C4.84978 10.9822 4.81261 11.0723 4.74644 11.1387C4.68028 11.2051 4.59054 11.2424 4.49697 11.2424H2.6582C2.67283 11.3241 2.71559 11.398 2.77902 11.4513C2.84244 11.5046 2.92248 11.5338 3.00517 11.5338H4.92392C5.01749 11.5338 5.10723 11.4965 5.1734 11.4301C5.23956 11.3636 5.27674 11.2736 5.27674 11.1796V9.25357C5.27674 9.15964 5.23956 9.06956 5.1734 9.00314C5.10723 8.93673 5.01749 8.89941 4.92392 8.89941ZM8.34284 17.2161H8.26285C8.26648 17.2365 8.2687 17.2574 8.2687 17.2789V19.2049C8.2687 19.2988 8.23152 19.3889 8.16536 19.4553C8.09919 19.5218 8.00945 19.5591 7.91588 19.5591H6.07712C6.09175 19.6408 6.13451 19.7147 6.19793 19.768C6.26135 19.8212 6.3414 19.8504 6.42408 19.8504H8.34284C8.43641 19.8504 8.52615 19.8131 8.59231 19.7467C8.65848 19.6803 8.69565 19.5902 8.69565 19.4963V17.5702C8.69565 17.4763 8.65848 17.3862 8.59231 17.3198C8.52615 17.2534 8.43641 17.2161 8.34284 17.2161ZM4.92392 13.0585H4.84393C4.84756 13.0789 4.84978 13.0998 4.84978 13.1213V15.0473C4.84978 15.1412 4.81261 15.2313 4.74644 15.2977C4.68028 15.3642 4.59054 15.4015 4.49697 15.4015H2.6582C2.67283 15.4832 2.71559 15.5571 2.77902 15.6104C2.84244 15.6636 2.92248 15.6928 3.00517 15.6928H4.92392C5.01749 15.6928 5.10723 15.6555 5.1734 15.5891C5.23956 15.5227 5.27674 15.4326 5.27674 15.3387V13.4126C5.27674 13.3187 5.23956 13.2286 5.1734 13.1622C5.10723 13.0958 5.01749 13.0585 4.92392 13.0585ZM16.6765 11.5338H18.5953C18.6889 11.5338 18.7786 11.4965 18.8448 11.4301C18.9109 11.3637 18.9481 11.2736 18.9481 11.1797V9.25362C18.9481 9.15969 18.9109 9.06961 18.8448 9.00319C18.7786 8.93678 18.6889 8.89947 18.5953 8.89947H18.5153C18.5189 8.91985 18.5212 8.9408 18.5212 8.96225V10.8883C18.5212 10.9822 18.484 11.0723 18.4178 11.1387C18.3517 11.2051 18.2619 11.2425 18.1683 11.2425H16.3296C16.3442 11.3242 16.387 11.3981 16.4504 11.4513C16.5138 11.5046 16.5939 11.5338 16.6765 11.5338ZM13.259 11.5338H15.1778C15.2714 11.5338 15.3611 11.4965 15.4273 11.4301C15.4934 11.3637 15.5306 11.2736 15.5306 11.1797V9.25362C15.5306 9.15969 15.4934 9.06961 15.4273 9.00319C15.3611 8.93678 15.2714 8.89947 15.1778 8.89947H15.0978C15.1014 8.91985 15.1037 8.9408 15.1037 8.96225V10.8883C15.1037 10.9822 15.0665 11.0723 15.0003 11.1387C14.9341 11.2051 14.8444 11.2425 14.7508 11.2425H12.9121C12.9267 11.3242 12.9695 11.3981 13.0329 11.4513C13.0963 11.5046 13.1764 11.5338 13.259 11.5338ZM4.92392 17.2161H4.84393C4.84756 17.2365 4.84978 17.2574 4.84978 17.2789V19.2049C4.84978 19.2988 4.81261 19.3889 4.74644 19.4553C4.68028 19.5218 4.59054 19.5591 4.49697 19.5591H2.6582C2.67283 19.6408 2.71559 19.7147 2.77902 19.768C2.84244 19.8212 2.92248 19.8504 3.00517 19.8504H4.92392C5.01749 19.8504 5.10723 19.8131 5.1734 19.7467C5.23956 19.6803 5.27674 19.5902 5.27674 19.4963V17.5702C5.27674 17.4763 5.23956 17.3862 5.1734 17.3198C5.10723 17.2534 5.01749 17.2161 4.92392 17.2161ZM8.34284 13.0585H8.26285C8.26648 13.0789 8.2687 13.0998 8.2687 13.1213V15.0473C8.2687 15.1412 8.23152 15.2313 8.16536 15.2977C8.09919 15.3642 8.00945 15.4015 7.91588 15.4015H6.07712C6.09175 15.4832 6.13451 15.5571 6.19793 15.6104C6.26135 15.6636 6.3414 15.6928 6.42408 15.6928H8.34284C8.43641 15.6928 8.52615 15.6555 8.59231 15.5891C8.65848 15.5227 8.69565 15.4326 8.69565 15.3387V13.4126C8.69565 13.3187 8.65848 13.2286 8.59231 13.1622C8.52615 13.0958 8.43641 13.0585 8.34284 13.0585ZM8.34284 8.89941H8.26285C8.26648 8.9198 8.2687 8.94075 8.2687 8.9622V10.8883C8.2687 10.9822 8.23152 11.0723 8.16536 11.1387C8.09919 11.2051 8.00945 11.2424 7.91588 11.2424H6.07712C6.09175 11.3241 6.13451 11.398 6.19793 11.4513C6.26135 11.5046 6.3414 11.5338 6.42408 11.5338H8.34284C8.38917 11.5338 8.43505 11.5246 8.47785 11.5068C8.52066 11.489 8.55955 11.4629 8.59231 11.4301C8.62508 11.3972 8.65106 11.3581 8.66879 11.3152C8.68652 11.2722 8.69565 11.2261 8.69565 11.1796V9.25357C8.69565 9.15964 8.65848 9.06956 8.59231 9.00314C8.52615 8.93673 8.43641 8.89941 8.34284 8.89941ZM11.7603 8.89941H11.6804C11.684 8.9198 11.6862 8.94075 11.6862 8.9622V10.8883C11.6862 10.9822 11.649 11.0723 11.5829 11.1387C11.5167 11.2051 11.427 11.2424 11.3334 11.2424H9.49462C9.50925 11.3241 9.55201 11.398 9.61543 11.4513C9.67885 11.5046 9.7589 11.5338 9.84159 11.5338H11.7603C11.8067 11.5338 11.8526 11.5246 11.8954 11.5068C11.9382 11.489 11.9771 11.4629 12.0098 11.4301C12.0426 11.3972 12.0686 11.3581 12.0863 11.3152C12.104 11.2722 12.1132 11.2261 12.1132 11.1796V9.25357C12.1132 9.15964 12.076 9.06956 12.0098 9.00314C11.9437 8.93673 11.8539 8.89941 11.7603 8.89941ZM11.7603 13.0585H11.6804C11.684 13.0789 11.6862 13.0998 11.6862 13.1213V15.0473C11.6862 15.1412 11.649 15.2313 11.5829 15.2977C11.5167 15.3642 11.427 15.4015 11.3334 15.4015H9.49462C9.50925 15.4832 9.55201 15.5571 9.61543 15.6104C9.67885 15.6636 9.7589 15.6928 9.84159 15.6928H11.7603C11.8539 15.6928 11.9437 15.6555 12.0098 15.5891C12.076 15.5227 12.1132 15.4326 12.1132 15.3387V13.4126C12.1132 13.3187 12.076 13.2286 12.0098 13.1622C11.9437 13.0958 11.8539 13.0585 11.7603 13.0585ZM11.7603 17.2161H11.6804C11.684 17.2365 11.6862 17.2574 11.6862 17.2789V19.2049C11.6862 19.2988 11.649 19.3889 11.5829 19.4553C11.5167 19.5218 11.427 19.5591 11.3334 19.5591H9.49462C9.50925 19.6408 9.55201 19.7147 9.61543 19.768C9.67885 19.8212 9.7589 19.8504 9.84159 19.8504H11.7603C11.8539 19.8504 11.9437 19.8131 12.0098 19.7467C12.076 19.6803 12.1132 19.5902 12.1132 19.4963V17.5702C12.1132 17.4763 12.076 17.3862 12.0098 17.3198C11.9437 17.2534 11.8539 17.2161 11.7603 17.2161Z" fill="#3A55A6"/>
<path d="M17.5455 4.39365C17.5455 4.48757 17.5084 4.57765 17.4422 4.64407C17.376 4.71049 17.2863 4.7478 17.1927 4.7478C16.5255 4.7478 15.9827 4.20291 15.9827 3.53315V1.71466C15.9827 1.04489 16.5255 0.5 17.1927 0.5C17.86 0.5 18.4042 1.04489 18.4042 1.71466V2.43612H17.6986V1.71466C17.6986 1.43543 17.4717 1.20831 17.1927 1.20831C16.9138 1.20831 16.6883 1.43543 16.6883 1.71466V3.53315C16.6883 3.81237 16.9146 4.03949 17.1927 4.03949C17.2863 4.03949 17.376 4.0768 17.4422 4.14322C17.5084 4.20964 17.5455 4.29972 17.5455 4.39365ZM12.9866 4.03949C12.7084 4.03949 12.4822 3.81237 12.4822 3.53315V1.71466C12.4822 1.43543 12.7084 1.20831 12.9866 1.20831C13.2648 1.20831 13.4924 1.43543 13.4924 1.71466V2.43612H14.1981V1.71466C14.1981 1.04489 13.6546 0.5 12.9866 0.5C12.3186 0.5 11.7765 1.04489 11.7765 1.71466V3.53315C11.7765 4.20291 12.3193 4.7478 12.9866 4.7478C13.0329 4.7478 13.0788 4.73864 13.1216 4.72084C13.1644 4.70305 13.2033 4.67696 13.2361 4.64407C13.2688 4.61119 13.2948 4.57214 13.3126 4.52918C13.3303 4.48621 13.3394 4.44015 13.3394 4.39365C13.3394 4.34714 13.3303 4.30108 13.3126 4.25812C13.2948 4.21515 13.2688 4.17611 13.2361 4.14322C13.2033 4.11033 13.1644 4.08425 13.1216 4.06645C13.0788 4.04865 13.0329 4.03949 12.9866 4.03949ZM8.78045 4.03949C8.50228 4.03949 8.27603 3.81237 8.27603 3.53315V1.71466C8.27603 1.43543 8.50228 1.20831 8.78045 1.20831C9.05862 1.20831 9.28628 1.43543 9.28628 1.71466V2.43612H9.99191V1.71466C9.99191 1.04489 9.44848 0.5 8.78045 0.5C8.11242 0.5 7.5704 1.04489 7.5704 1.71466V3.53315C7.5704 4.20291 8.11318 4.7478 8.78045 4.7478C8.82678 4.7478 8.87266 4.73864 8.91547 4.72084C8.95827 4.70305 8.99717 4.67696 9.02993 4.64407C9.06269 4.61119 9.08868 4.57214 9.10641 4.52918C9.12414 4.48621 9.13326 4.44015 9.13326 4.39365C9.13326 4.34714 9.12414 4.30108 9.10641 4.25812C9.08868 4.21515 9.06269 4.17611 9.02993 4.14322C8.99717 4.11033 8.95827 4.08425 8.91547 4.06645C8.87266 4.04865 8.82678 4.03949 8.78045 4.03949ZM4.57431 4.03949C4.29614 4.03949 4.06989 3.81237 4.06989 3.53315V1.71466C4.06989 1.43543 4.29614 1.20831 4.57431 1.20831C4.85248 1.20831 5.08014 1.43543 5.08014 1.71466V2.43612H5.78577V1.71466C5.78577 1.04489 5.24234 0.5 4.57431 0.5C3.90628 0.5 3.36426 1.04489 3.36426 1.71466V3.53315C3.36426 4.20291 3.90704 4.7478 4.57431 4.7478C4.62064 4.7478 4.66652 4.73864 4.70932 4.72084C4.75213 4.70305 4.79102 4.67696 4.82378 4.64407C4.85655 4.61119 4.88253 4.57214 4.90026 4.52918C4.918 4.48621 4.92712 4.44015 4.92712 4.39365C4.92712 4.34714 4.918 4.30108 4.90026 4.25812C4.88253 4.21515 4.85655 4.17611 4.82378 4.14322C4.79102 4.11033 4.75213 4.08425 4.70932 4.06645C4.66652 4.04865 4.62064 4.03949 4.57431 4.03949Z" fill="#8497CE"/>
<path d="M8.78127 4.74731C8.49669 4.74753 8.22123 4.64658 8.00372 4.46237C8.0387 4.86328 8.37352 5.17792 8.78203 5.17792C9.21377 5.17792 9.56382 4.82659 9.56382 4.39316C9.56382 3.95972 9.21382 3.6084 8.78203 3.6084C8.61939 3.60834 8.46083 3.65948 8.32867 3.75461C8.41082 3.92269 8.58259 4.03895 8.78133 4.03895C8.8749 4.03895 8.96464 4.07626 9.0308 4.14268C9.09697 4.2091 9.13414 4.29918 9.13414 4.39311C9.13414 4.48704 9.09697 4.57712 9.0308 4.64353C8.96464 4.70995 8.8749 4.74726 8.78133 4.74726L8.78127 4.74731ZM17.1936 4.74731C16.9096 4.74754 16.6348 4.64709 16.4175 4.46369C16.4531 4.86398 16.7876 5.17792 17.1957 5.17792C17.6274 5.17792 17.9775 4.82659 17.9775 4.39316C17.9775 3.95972 17.6275 3.6084 17.1957 3.6084C17.0326 3.60834 16.8736 3.65977 16.7413 3.75542C16.8236 3.92309 16.9951 4.039 17.1936 4.039C17.2871 4.039 17.3769 4.07631 17.443 4.14273C17.5092 4.20915 17.5464 4.29923 17.5464 4.39316C17.5464 4.48709 17.5092 4.57717 17.443 4.64358C17.3769 4.71 17.2871 4.74731 17.1936 4.74731ZM4.57518 4.74731C4.29026 4.74754 4.01448 4.64634 3.79688 4.46171C3.83155 4.86297 4.16647 5.17792 4.57518 5.17792C5.00692 5.17792 5.35697 4.82659 5.35697 4.39316C5.35697 3.95972 5.00698 3.6084 4.57518 3.6084C4.41275 3.60832 4.25438 3.65933 4.12232 3.75426C4.20437 3.92254 4.37625 4.039 4.57518 4.039C4.66875 4.039 4.75849 4.07631 4.82466 4.14273C4.89082 4.20915 4.928 4.29923 4.928 4.39316C4.928 4.48709 4.89082 4.57717 4.82466 4.64358C4.75849 4.71 4.66875 4.74731 4.57518 4.74731ZM12.9874 4.74731C12.7032 4.74754 12.428 4.64684 12.2106 4.46303C12.2459 4.86363 12.5806 5.17792 12.9888 5.17792C13.4206 5.17792 13.7706 4.82659 13.7706 4.39316C13.7706 3.95972 13.4206 3.6084 12.9888 3.6084C12.826 3.60834 12.6672 3.65963 12.5349 3.75502C12.6171 3.92289 12.7888 4.039 12.9874 4.039C13.0809 4.039 13.1707 4.07631 13.2368 4.14273C13.303 4.20915 13.3402 4.29923 13.3402 4.39316C13.3402 4.48709 13.303 4.57717 13.2368 4.64358C13.1707 4.71 13.0809 4.74731 12.9874 4.74731H12.9874Z" fill="#C88500"/>
<path d="M19.761 14.9834C16.873 14.9834 14.5234 17.3425 14.5234 20.2423C14.5234 23.1421 16.873 25.4998 19.761 25.4998C22.649 25.4998 24.9999 23.1413 24.9999 20.2423C24.9999 17.3433 22.6497 14.9834 19.761 14.9834Z" fill="#29BB93"/>
<path d="M19.7609 14.9834C19.6593 14.9834 19.5586 14.9867 19.4585 14.9924C22.207 15.1503 24.395 17.4445 24.395 20.2424C24.395 23.0403 22.207 25.3331 19.4585 25.4909C19.5586 25.4966 19.6593 25.4998 19.7609 25.4998C22.6496 25.4998 24.9998 23.1413 24.9998 20.2423C24.9998 17.3433 22.6496 14.9834 19.7609 14.9834V14.9834Z" fill="#0FA97F"/>
<path d="M19.7609 14.9834C19.6593 14.9834 19.5586 14.9867 19.4585 14.9924C22.207 15.1503 24.395 17.4445 24.395 20.2424C24.395 23.0403 22.207 25.3331 19.4585 25.4909C19.5586 25.4966 19.6593 25.4998 19.7609 25.4998C22.6496 25.4998 24.9998 23.1413 24.9998 20.2423C24.9998 17.3433 22.6496 14.9834 19.7609 14.9834V14.9834Z" fill="black" fill-opacity="0.2"/>
<path d="M15.1023 17.8397C15.1959 17.6575 15.3001 17.4809 15.4143 17.3109C15.3494 17.251 15.2645 17.2177 15.1764 17.2178H15.0964C15.1 17.2382 15.1022 17.2591 15.1022 17.2806V17.8397H15.1023ZM14.5662 19.5608H12.9106C12.9253 19.6425 12.968 19.7164 13.0315 19.7697C13.0949 19.8229 13.1749 19.8521 13.2576 19.8521H14.5366C14.5438 19.7542 14.5537 19.6571 14.5662 19.5608H14.5662Z" fill="#3A55A6"/>
<path d="M16.6761 15.692H17.1379C17.696 15.3661 18.3097 15.1474 18.9476 15.0472V13.4118C18.9476 13.3178 18.9104 13.2278 18.8443 13.1613C18.7781 13.0949 18.6884 13.0576 18.5948 13.0576H16.6761C16.5825 13.0576 16.4927 13.0949 16.4266 13.1613C16.3604 13.2278 16.3232 13.3178 16.3232 13.4118V15.3378C16.3232 15.4318 16.3604 15.5218 16.4266 15.5883C16.4927 15.6547 16.5825 15.692 16.6761 15.692Z" fill="#8497CE"/>
<path d="M18.5202 15.0465C18.5202 15.0774 18.5159 15.1073 18.5084 15.1359C18.6524 15.1003 18.7987 15.0705 18.9471 15.0472V13.4118C18.9471 13.3178 18.91 13.2278 18.8438 13.1613C18.7776 13.0949 18.6879 13.0576 18.5943 13.0576H18.5143C18.518 13.078 18.5202 13.099 18.5202 13.1204V15.0465ZM16.6756 15.692H17.1375C17.3243 15.5829 17.5178 15.4856 17.7166 15.4006H16.3286C16.3432 15.4823 16.386 15.5562 16.4494 15.6095C16.5128 15.6628 16.5929 15.692 16.6756 15.692Z" fill="#3A55A6"/>
<path d="M17.5448 20.8434C17.3076 20.6111 17.3019 20.2282 17.5334 19.9901C17.7648 19.7506 18.1463 19.7449 18.3834 19.9772L19.0721 20.6498L21.1337 18.5603C21.3694 18.3251 21.7494 18.3265 21.9837 18.5632C22.2181 18.7998 22.2167 19.1813 21.9823 19.4165L19.5007 21.9219C19.2693 22.1542 18.8935 22.1571 18.6578 21.9276L17.5448 20.8434Z" fill="white"/>
<path d="M14.9579 22.3384H1.47295C0.660769 22.3384 0 21.6745 0 20.8584V22.2639C0 23.0799 0.660719 23.7438 1.47295 23.7438H15.8577C15.4852 23.3264 15.1815 22.8519 14.9579 22.3384ZM21.7692 15.3851V6.76367H21.0131V15.1352C21.2711 15.199 21.5239 15.2825 21.7692 15.3851Z" fill="#D2D9DB"/>
</svg>
