<svg width="25" height="25" viewBox="0 0 25 25" fill="none" xmlns="http://www.w3.org/2000/svg">
<path d="M14.4269 1.24998V8.95822C14.4269 9.6353 13.854 10.2082 13.1769 10.2082H6.56239L1.66662 12.7602V10.2081H1.24998C0.572891 10.2081 0 9.63526 0 8.95817V1.24998C0 0.572892 0.572891 0 1.24998 0H13.2289C13.906 0 14.4269 0.572892 14.4269 1.24998Z" fill="#3A55A6"/>
<path d="M3.38538 6.45826C4.13324 6.45826 4.73951 5.852 4.73951 5.10413C4.73951 4.35626 4.13324 3.75 3.38538 3.75C2.63751 3.75 2.03125 4.35626 2.03125 5.10413C2.03125 5.852 2.63751 6.45826 3.38538 6.45826Z" fill="white"/>
<path d="M7.23987 6.45826C7.98774 6.45826 8.594 5.852 8.594 5.10413C8.594 4.35626 7.98774 3.75 7.23987 3.75C6.49201 3.75 5.88574 4.35626 5.88574 5.10413C5.88574 5.852 6.49201 6.45826 7.23987 6.45826Z" fill="white"/>
<path d="M11.0934 6.45826C11.8413 6.45826 12.4475 5.852 12.4475 5.10413C12.4475 4.35626 11.8413 3.75 11.0934 3.75C10.3455 3.75 9.73926 4.35626 9.73926 5.10413C9.73926 5.852 10.3455 6.45826 11.0934 6.45826Z" fill="white"/>
<path d="M10.5732 4.32322V11.9794C10.5732 12.6564 11.1461 13.2293 11.8232 13.2293H18.4898L23.3855 15.7814V13.2293H23.7501C24.4272 13.2293 25.0001 12.6564 25.0001 11.9794V4.32322C25.0001 3.64613 24.4272 3.07324 23.7501 3.07324H11.7712C11.0941 3.07324 10.5732 3.64618 10.5732 4.32322Z" fill="#F7B636"/>
<path d="M21.6144 9.5315C22.3622 9.5315 22.9685 8.92524 22.9685 8.17737C22.9685 7.42951 22.3622 6.82324 21.6144 6.82324C20.8665 6.82324 20.2603 7.42951 20.2603 8.17737C20.2603 8.92524 20.8665 9.5315 21.6144 9.5315Z" fill="white"/>
<path d="M17.7604 9.5315C18.5082 9.5315 19.1145 8.92524 19.1145 8.17737C19.1145 7.42951 18.5082 6.82324 17.7604 6.82324C17.0125 6.82324 16.4062 7.42951 16.4062 8.17737C16.4062 8.92524 17.0125 9.5315 17.7604 9.5315Z" fill="white"/>
<path d="M13.9059 9.5315C14.6538 9.5315 15.26 8.92524 15.26 8.17737C15.26 7.42951 14.6538 6.82324 13.9059 6.82324C13.158 6.82324 12.5518 7.42951 12.5518 8.17737C12.5518 8.92524 13.158 9.5315 13.9059 9.5315Z" fill="white"/>
<path d="M18.1251 13.542V21.2502C18.1251 21.9273 17.5522 22.5002 16.8751 22.5002H12.7606L10.8856 25.0002L9.01066 22.4481H4.94822C4.27113 22.4481 3.69824 21.8752 3.69824 21.1981V13.542C3.69824 12.8649 4.27113 12.292 4.94822 12.292H16.9272C17.6043 12.292 18.1251 12.8649 18.1251 13.542Z" fill="#19B68B"/>
<path d="M14.7399 18.7503C15.4877 18.7503 16.094 18.144 16.094 17.3961C16.094 16.6483 15.4877 16.042 14.7399 16.042C13.992 16.042 13.3857 16.6483 13.3857 17.3961C13.3857 18.144 13.992 18.7503 14.7399 18.7503Z" fill="white"/>
<path d="M10.9371 18.7503C11.685 18.7503 12.2913 18.144 12.2913 17.3961C12.2913 16.6483 11.685 16.042 10.9371 16.042C10.1893 16.042 9.58301 16.6483 9.58301 17.3961C9.58301 18.144 10.1893 18.7503 10.9371 18.7503Z" fill="white"/>
<path d="M7.08362 18.7503C7.83149 18.7503 8.43775 18.144 8.43775 17.3961C8.43775 16.6483 7.83149 16.042 7.08362 16.042C6.33576 16.042 5.72949 16.6483 5.72949 17.3961C5.72949 18.144 6.33576 18.7503 7.08362 18.7503Z" fill="white"/>
</svg>
