<svg width="25" height="26" viewBox="0 0 25 26" fill="none" xmlns="http://www.w3.org/2000/svg">
<path d="M1.2097 8.83334H3.6291C4.29718 8.83334 4.8388 8.32454 4.8388 7.69694C4.8388 7.06934 4.29718 6.56055 3.6291 6.56055H1.2097C0.541618 6.56055 0 7.06934 0 7.69694C0 8.32454 0.541618 8.83334 1.2097 8.83334ZM3.62905 11.8637H1.2097C0.541618 11.8637 0 12.3725 0 13.0001C0 13.6276 0.541618 14.1364 1.2097 14.1364H3.6291C4.29718 14.1364 4.8388 13.6276 4.8388 13.0001C4.83875 12.3725 4.29713 11.8637 3.62905 11.8637ZM3.62905 17.1668H1.2097C0.541618 17.1668 0 17.6756 0 18.3032C0 18.9308 0.541618 19.4396 1.2097 19.4396H3.6291C4.29718 19.4396 4.8388 18.9308 4.8388 18.3032C4.8388 17.6756 4.29713 17.1668 3.62905 17.1668Z" fill="#3A55A6"/>
<path d="M13.7101 13.7577C15.7144 13.7577 17.3392 12.2314 17.3392 10.3486C17.3392 8.46578 15.7144 6.93945 13.7101 6.93945C11.7058 6.93945 10.0811 8.46578 10.0811 10.3486C10.0811 12.2314 11.7058 13.7577 13.7101 13.7577Z" fill="#EBEEF6"/>
<path d="M13.7097 13.7578C10.5919 13.7578 8.06445 16.1319 8.06445 19.0609H19.3549C19.3549 16.1319 16.8274 13.7578 13.7097 13.7578Z" fill="#EBEEF6"/>
<path d="M23.7905 0.5H7.66138C4.77095 0.5 2.41943 2.70907 2.41943 5.42429V6.56069H3.62913C4.29722 6.56069 4.83884 7.06949 4.83884 7.69708C4.83884 8.32468 4.29722 8.83348 3.62913 8.83348H2.41943V11.8638H3.62913C4.29722 11.8638 4.83884 12.3726 4.83884 13.0002C4.83884 13.6278 4.29722 14.1366 3.62913 14.1366H2.41943V17.167H3.62913C4.29722 17.167 4.83884 17.6758 4.83884 18.3034C4.83884 18.931 4.29722 19.4398 3.62913 19.4398H2.41943V20.5762C2.41943 23.2913 4.77095 25.5004 7.66138 25.5004H23.7905C24.4586 25.5004 25.0002 24.9916 25.0002 24.364V1.63639C25.0002 1.0088 24.4586 0.5 23.7905 0.5ZM13.7098 19.0609H8.06463C8.06463 16.1319 10.592 13.7578 13.7098 13.7578C11.7056 13.7578 10.0808 12.2314 10.0808 10.3486C10.0808 8.46575 11.7056 6.9395 13.7098 6.9395C15.714 6.9395 17.3389 8.46575 17.3389 10.3486C17.3389 12.2314 15.714 13.7578 13.7098 13.7578C16.8276 13.7578 19.355 16.1319 19.355 19.0609H13.7098Z" fill="#9CAAD3"/>
<path d="M8.06463 19.0608C8.06463 16.1318 10.592 13.7577 13.7098 13.7577C11.7056 13.7577 10.0808 12.2313 10.0808 10.3486C10.0808 8.46575 11.7056 6.93946 13.7098 6.93946V0.5H7.66138C4.77095 0.5 2.41943 2.70907 2.41943 5.42429V6.56069H3.62913C4.29722 6.56069 4.83884 7.06949 4.83884 7.69708C4.83884 8.32468 4.29722 8.83348 3.62913 8.83348H2.41943V11.8638H3.62913C4.29722 11.8638 4.83884 12.3726 4.83884 13.0002C4.83884 13.6278 4.29722 14.1366 3.62913 14.1366H2.41943V17.167H3.62913C4.29722 17.167 4.83884 17.6758 4.83884 18.3034C4.83884 18.931 4.29722 19.4398 3.62913 19.4398H2.41943V20.5762C2.41943 23.2913 4.77095 25.5004 7.66138 25.5004H13.7098V19.0608H8.06463Z" fill="#6177B8"/>
</svg>
