<svg width="25" height="25" viewBox="0 0 25 25" fill="none" xmlns="http://www.w3.org/2000/svg">
<path d="M23.8371 25H1.16289C0.520703 25 0 24.4433 0 23.7567V1.41821C0 0.634977 0.593945 0 1.32637 0H23.7437C24.4375 0 25 0.601359 25 1.34314V23.7567C25 24.4433 24.4793 25 23.8371 25Z" fill="#F4F4F4"/>
<path d="M23.7436 0H23.1602C23.1982 0.131837 23.2175 0.269043 23.2174 0.407015V24.593C23.2174 24.7347 23.1974 24.8713 23.1602 25H23.8369C24.4793 25 24.9998 24.4433 24.9998 23.7568V1.34299C24.9998 0.601361 24.4373 0 23.7436 0Z" fill="#E8E8E8"/>
<path d="M0 4.81108H25V1.28076C25 0.573432 24.4637 0 23.802 0H1.198C0.536377 0 0 0.57338 0 1.28076V4.81108Z" fill="#9CAAD3"/>
<path d="M23.8018 0H23.1602C23.1982 0.13184 23.2175 0.269046 23.2173 0.407015V4.81109H24.9998V1.28076C24.9998 0.573433 24.4634 0 23.8018 0Z" fill="#6177B8"/>
<path d="M3.88916 2.40544C3.88916 2.9297 3.4917 3.35488 3.00112 3.35488C2.51074 3.35488 2.11328 2.9297 2.11328 2.40544C2.11328 1.88118 2.51074 1.45605 3.00112 1.45605C3.4917 1.45605 3.88916 1.88118 3.88916 2.40544Z" fill="#FA5D72"/>
<path d="M6.89527 2.40544C6.89527 2.9297 6.49761 3.35488 6.00723 3.35488C5.51665 3.35488 5.11914 2.9297 5.11914 2.40544C5.11914 1.88118 5.5166 1.45605 6.00723 1.45605C6.49761 1.45605 6.89527 1.88118 6.89527 2.40544Z" fill="#F6D867"/>
<path d="M9.90113 2.40544C9.90113 2.9297 9.50342 3.35488 9.01304 3.35488C8.52266 3.35488 8.125 2.9297 8.125 2.40544C8.125 1.88118 8.52266 1.45605 9.01304 1.45605C9.50342 1.45605 9.90113 1.88118 9.90113 2.40544Z" fill="#29BB93"/>
<path d="M0 4.81055V23.7187C0 24.4261 0.536329 24.9995 1.198 24.9995H8.12477V4.81055H0Z" fill="#EBEEF6"/>
<path d="M7.39746 4.81055H8.12476V24.9995H7.39746V4.81055Z" fill="#D8DDED"/>
<path d="M15.3332 11.8276H10.0704C9.96778 11.8276 9.8694 11.784 9.79687 11.7064C9.72434 11.6289 9.68359 11.5237 9.68359 11.414V7.19674C9.68359 7.08707 9.72434 6.9819 9.79687 6.90434C9.8694 6.82679 9.96778 6.78322 10.0704 6.7832H15.3332C15.4358 6.7832 15.5341 6.82677 15.6067 6.90433C15.6792 6.98188 15.72 7.08707 15.72 7.19674V11.4141C15.72 11.5238 15.6792 11.6289 15.6067 11.7065C15.5341 11.784 15.4357 11.8276 15.3332 11.8276Z" fill="#FA5D72"/>
<path d="M15.3328 6.78325H14.4189C14.4548 6.85235 14.4737 6.93009 14.4737 7.00913V11.6017C14.4737 11.6807 14.4549 11.7585 14.4189 11.8276H15.3328C15.4354 11.8276 15.5337 11.784 15.6063 11.7065C15.6788 11.6289 15.7196 11.5237 15.7196 11.414V7.19674C15.7196 7.08707 15.6788 6.98188 15.6063 6.90433C15.5337 6.82677 15.4354 6.78325 15.3328 6.78325Z" fill="#E35567"/>
<path d="M23.0608 11.8276H17.9344C17.8747 11.8276 17.8155 11.815 17.7603 11.7906C17.7051 11.7662 17.655 11.7303 17.6127 11.6852C17.5705 11.64 17.537 11.5864 17.5141 11.5274C17.4912 11.4684 17.4795 11.4051 17.4795 11.3413V7.26956C17.4795 7.14057 17.5274 7.01687 17.6127 6.92565C17.6981 6.83444 17.8138 6.7832 17.9344 6.7832H23.0608C23.1814 6.78322 23.2972 6.83446 23.3825 6.92567C23.4678 7.01688 23.5157 7.14058 23.5157 7.26956V11.3413C23.5157 11.4051 23.5039 11.4684 23.4811 11.5274C23.4582 11.5864 23.4247 11.64 23.3825 11.6852C23.3402 11.7303 23.2901 11.7661 23.2349 11.7906C23.1797 11.815 23.1205 11.8276 23.0608 11.8276Z" fill="#FA5D72"/>
<path d="M23.0612 6.78325H22.2188C22.2785 6.87483 22.3104 6.9838 22.3103 7.09542V11.5156C22.3103 11.6316 22.2764 11.7391 22.2188 11.8277H23.0612C23.3125 11.8277 23.5161 11.6101 23.5161 11.3412V7.26951C23.5161 7.14054 23.4682 7.01685 23.3829 6.92565C23.2976 6.83446 23.1819 6.78327 23.0612 6.78325Z" fill="#E35567"/>
<path d="M23.1299 19.0331H10.0704C9.96778 19.0331 9.8694 18.9895 9.79687 18.9119C9.72434 18.8344 9.68359 18.7292 9.68359 18.6195V13.9614C9.68359 13.8517 9.72434 13.7465 9.79687 13.669C9.8694 13.5914 9.96778 13.5479 10.0704 13.5479H23.1298C23.1806 13.5479 23.2309 13.5585 23.2778 13.5793C23.3248 13.6001 23.3674 13.6306 23.4033 13.669C23.4392 13.7074 23.4677 13.753 23.4872 13.8031C23.5066 13.8533 23.5166 13.9071 23.5166 13.9614V18.6195C23.5166 18.7292 23.4759 18.8344 23.4033 18.9119C23.3308 18.9895 23.2324 19.0331 23.1299 19.0331Z" fill="#FA5D72"/>
<path d="M23.1294 13.5479H22.2607C22.2806 13.6022 22.2909 13.66 22.2909 13.7183V18.8626C22.2909 18.9228 22.2798 18.9801 22.2607 19.0331H23.1294C23.232 19.0331 23.3304 18.9895 23.4029 18.9119C23.4754 18.8344 23.5162 18.7292 23.5162 18.6195V13.9614C23.5162 13.8517 23.4754 13.7465 23.4029 13.669C23.3304 13.5914 23.232 13.5479 23.1294 13.5479Z" fill="#E35567"/>
<path d="M23.1562 22.7207H10.0704C9.96778 22.7206 9.8694 22.6771 9.79687 22.5995C9.72434 22.522 9.68359 22.4168 9.68359 22.3071V21.3706C9.68359 21.2609 9.72434 21.1557 9.79687 21.0782C9.8694 21.0006 9.96778 20.957 10.0704 20.957H23.1562C23.2588 20.957 23.3571 21.0006 23.4297 21.0782C23.5022 21.1557 23.5429 21.2609 23.5429 21.3706V22.3071C23.543 22.3614 23.533 22.4151 23.5135 22.4653C23.4941 22.5155 23.4656 22.5611 23.4297 22.5995C23.3938 22.6379 23.3511 22.6684 23.3042 22.6892C23.2573 22.7099 23.207 22.7207 23.1562 22.7207Z" fill="#F9C55E"/>
<path d="M23.1443 20.957H21.9873C22.0396 20.957 22.0914 20.968 22.1398 20.9894C22.1881 21.0108 22.2321 21.0422 22.2691 21.0818C22.3061 21.1213 22.3354 21.1683 22.3554 21.22C22.3754 21.2717 22.3857 21.3271 22.3857 21.383V22.2947C22.3857 22.3506 22.3754 22.406 22.3554 22.4577C22.3354 22.5094 22.3061 22.5564 22.2691 22.5959C22.2321 22.6355 22.1881 22.6668 22.1398 22.6882C22.0914 22.7097 22.0396 22.7207 21.9873 22.7207H23.1443C23.1966 22.7207 23.2484 22.7097 23.2968 22.6882C23.3451 22.6668 23.389 22.6355 23.426 22.5959C23.463 22.5564 23.4924 22.5094 23.5124 22.4577C23.5324 22.406 23.5427 22.3506 23.5427 22.2947V21.383C23.5427 21.3271 23.5324 21.2717 23.5124 21.22C23.4924 21.1683 23.463 21.1213 23.426 21.0818C23.389 21.0422 23.3451 21.0108 23.2968 20.9894C23.2484 20.968 23.1966 20.957 23.1443 20.957Z" fill="#F7B636"/>
<path d="M22.7534 2.40531C22.7534 2.35235 22.7436 2.2999 22.7247 2.25096C22.7057 2.20202 22.6779 2.15755 22.6429 2.1201C22.6079 2.08264 22.5663 2.05293 22.5205 2.03266C22.4747 2.01239 22.4257 2.00195 22.3761 2.00195H13.1876C12.9794 2.00195 12.8104 2.18262 12.8104 2.40531C12.8104 2.62801 12.9793 2.80867 13.1876 2.80867H22.3761C22.5846 2.80867 22.7534 2.62801 22.7534 2.40531ZM1.57261 7.47172H6.5525C6.65256 7.47172 6.74852 7.42923 6.81927 7.35359C6.89002 7.27795 6.92977 7.17536 6.92977 7.06839C6.92977 6.96142 6.89002 6.85883 6.81927 6.78319C6.74852 6.70755 6.65256 6.66506 6.5525 6.66506H1.57261C1.47255 6.66506 1.37659 6.70755 1.30584 6.78319C1.23509 6.85883 1.19534 6.96142 1.19534 7.06839C1.19534 7.17536 1.23509 7.27795 1.30584 7.35359C1.37659 7.42923 1.47255 7.47172 1.57261 7.47172ZM1.57261 9.99472H6.5525C6.65256 9.99472 6.74852 9.95223 6.81927 9.87659C6.89002 9.80095 6.92977 9.69836 6.92977 9.59139C6.92977 9.48442 6.89002 9.38183 6.81927 9.30619C6.74852 9.23055 6.65256 9.18806 6.5525 9.18806H1.57261C1.47255 9.18806 1.37659 9.23055 1.30584 9.30619C1.23509 9.38183 1.19534 9.48442 1.19534 9.59139C1.19534 9.69836 1.23509 9.80095 1.30584 9.87659C1.37659 9.95223 1.47255 9.99472 1.57261 9.99472ZM1.57261 12.5177H6.5525C6.65256 12.5177 6.74852 12.4752 6.81927 12.3995C6.89002 12.3239 6.92977 12.2213 6.92977 12.1143C6.92977 12.0074 6.89002 11.9048 6.81927 11.8291C6.74852 11.7535 6.65256 11.711 6.5525 11.711H1.57261C1.47254 11.711 1.37658 11.7535 1.30582 11.8291C1.23506 11.9048 1.19531 12.0074 1.19531 12.1144C1.19531 12.2213 1.23506 12.3239 1.30582 12.3996C1.37658 12.4752 1.47254 12.5177 1.57261 12.5177ZM1.57261 15.0405H6.5525C6.65254 15.0405 6.74848 14.998 6.81922 14.9224C6.88996 14.8468 6.9297 14.7442 6.9297 14.6373C6.9297 14.5303 6.88996 14.4277 6.81922 14.3521C6.74848 14.2765 6.65254 14.234 6.5525 14.234H1.57261C1.47257 14.234 1.37663 14.2765 1.30589 14.3521C1.23515 14.4277 1.19541 14.5303 1.19541 14.6373C1.19541 14.7442 1.23515 14.8468 1.30589 14.9224C1.37663 14.998 1.47257 15.0405 1.57261 15.0405Z" fill="#3A55A6"/>
</svg>
