<svg width="25" height="25" viewBox="0 0 25 25" fill="none" xmlns="http://www.w3.org/2000/svg">
<path d="M21.0187 2.83008H2.42035C1.08576 2.83008 0 3.99776 0 5.43309V5.78618C0 7.22146 1.08576 8.38914 2.42035 8.38914H21.0188C21.067 8.38915 21.1148 8.37894 21.1593 8.3591C21.2039 8.33925 21.2444 8.31017 21.2785 8.2735C21.3126 8.23683 21.3396 8.19329 21.3581 8.14538C21.3765 8.09747 21.386 8.04612 21.386 7.99426V3.22496C21.386 3.17309 21.3765 3.12174 21.358 3.07382C21.3396 3.0259 21.3125 2.98237 21.2784 2.9457C21.2443 2.90903 21.2038 2.87995 21.1593 2.86011C21.1147 2.84027 21.067 2.83006 21.0187 2.83008Z" fill="#3A55A6"/>
<path d="M0.100242 4.69238C0.0337399 4.93255 -2.53075e-05 5.18183 1.42316e-08 5.43242V5.7855C1.42316e-08 7.22078 1.08576 8.38846 2.42035 8.38846H21.0188C21.067 8.38847 21.1148 8.37826 21.1593 8.35842C21.2039 8.33858 21.2444 8.30949 21.2785 8.27282C21.3126 8.23615 21.3396 8.19262 21.3581 8.14471C21.3765 8.09679 21.386 8.04544 21.386 7.99358V6.55389H2.42035C1.32321 6.55384 0.397158 5.76859 0.100242 4.69238Z" fill="#6177B8"/>
<path d="M11.7032 1.61575L10.3082 0.115622C10.2393 0.0415882 10.1459 0 10.0486 0C9.95117 0 9.85778 0.0415882 9.7889 0.115622L2.72276 7.71489C2.6714 7.77012 2.63644 7.84049 2.62228 7.9171C2.60812 7.99371 2.61541 8.07311 2.64322 8.14527C2.67101 8.21743 2.71807 8.27911 2.77846 8.32251C2.83884 8.36591 2.90984 8.38907 2.98247 8.38907H5.77229C5.86968 8.38907 5.96307 8.34748 6.03196 8.27344L11.7032 2.17431C11.7721 2.10023 11.8107 1.99977 11.8107 1.89502C11.8107 1.79027 11.772 1.68982 11.7032 1.61575Z" fill="#78AA17"/>
<path d="M3.78499 6.57227L2.72276 7.71464C2.6714 7.76987 2.63644 7.84024 2.62228 7.91685C2.60812 7.99346 2.61541 8.07286 2.64322 8.14502C2.67101 8.21718 2.71807 8.27887 2.77846 8.32227C2.83884 8.36566 2.90984 8.38883 2.98247 8.38883H5.77229C5.86968 8.38882 5.96307 8.34723 6.03196 8.2732L7.61351 6.57232L3.78499 6.57227Z" fill="#6D8915"/>
<path d="M20.1643 7.71489L13.0983 0.115627C13.0294 0.0415895 12.936 0 12.8386 0C12.7412 0 12.6478 0.0415895 12.5789 0.115627L5.5128 7.71489C5.46144 7.77012 5.42648 7.8405 5.41232 7.91711C5.39816 7.99371 5.40545 8.07312 5.43326 8.14527C5.46105 8.21744 5.50811 8.27912 5.5685 8.32252C5.62888 8.36592 5.69988 8.38908 5.77251 8.38908H19.9048C19.9774 8.38908 20.0484 8.36592 20.1088 8.32252C20.1692 8.27912 20.2163 8.21743 20.244 8.14526C20.2718 8.07309 20.2791 7.99368 20.2649 7.91708C20.2507 7.84047 20.2157 7.77011 20.1643 7.71489Z" fill="#8ACC19"/>
<path d="M5.5128 7.71464C5.46144 7.76987 5.42648 7.84024 5.41232 7.91685C5.39816 7.99346 5.40545 8.07286 5.43326 8.14502C5.46105 8.21718 5.50811 8.27887 5.5685 8.32227C5.62888 8.36566 5.69988 8.38883 5.77251 8.38883H19.9048C19.9774 8.38886 20.0484 8.36572 20.1089 8.32233C20.1693 8.27894 20.2164 8.21726 20.2442 8.14508C20.272 8.07291 20.2792 7.99348 20.2651 7.91686C20.2509 7.84024 20.2159 7.76986 20.1645 7.71464L19.1023 6.57227H6.57503L5.5128 7.71464Z" fill="#78A017"/>
<path d="M18.0761 7.71464L14.153 3.4955C14.0841 3.42148 13.9907 3.3799 13.8933 3.3799C13.7959 3.3799 13.7025 3.42148 13.6336 3.4955C13.5302 3.60743 13.4071 3.69617 13.2715 3.75658C13.1359 3.81698 12.9905 3.84786 12.8438 3.84743C12.697 3.84787 12.5516 3.817 12.4161 3.7566C12.2805 3.6962 12.1574 3.60747 12.0539 3.49555C11.985 3.4215 11.8916 3.37989 11.7943 3.37988C11.6969 3.37987 11.6035 3.42146 11.5346 3.4955L7.61143 7.71464C7.56008 7.76987 7.52511 7.84025 7.51095 7.91686C7.49679 7.99346 7.50408 8.07287 7.53189 8.14502C7.55968 8.21719 7.60674 8.27887 7.66713 8.32227C7.72752 8.36567 7.79851 8.38883 7.87114 8.38883H17.8165C17.8891 8.38884 17.9601 8.36568 18.0205 8.32229C18.0809 8.27889 18.128 8.21721 18.1558 8.14504C18.1835 8.07287 18.1908 7.99345 18.1766 7.91684C18.1624 7.84023 18.1274 7.76986 18.0761 7.71464Z" fill="#78A017"/>
<path d="M7.61143 7.71464C7.56008 7.76987 7.52511 7.84024 7.51095 7.91685C7.49679 7.99346 7.50408 8.07286 7.53189 8.14502C7.55968 8.21718 7.60674 8.27887 7.66713 8.32227C7.72751 8.36566 7.79851 8.38883 7.87114 8.38883H17.8165C17.8891 8.38881 17.9601 8.36564 18.0204 8.32224C18.0808 8.27884 18.1279 8.21717 18.1557 8.14502C18.1835 8.07286 18.1908 7.99346 18.1766 7.91686C18.1625 7.84026 18.1275 7.76988 18.0762 7.71464L17.0139 6.57227H8.67361L7.61143 7.71464Z" fill="#6D8915"/>
<path d="M23.3004 7.59913H1.98569C0.931227 7.59913 0.0687483 6.717 0.000390616 5.60156C0.000341789 5.60419 0 5.60681 0 5.6096V22.2204C0 23.753 1.1594 24.9999 2.58451 24.9999H23.3005C23.3487 24.9999 23.3964 24.9897 23.441 24.9699C23.4855 24.95 23.526 24.9209 23.5601 24.8843C23.5942 24.8476 23.6213 24.8041 23.6397 24.7562C23.6582 24.7082 23.6676 24.6569 23.6676 24.605V7.99401C23.6676 7.94215 23.6581 7.8908 23.6397 7.84288C23.6212 7.79497 23.5942 7.75144 23.5601 7.71477C23.526 7.6781 23.4855 7.64901 23.4409 7.62917C23.3964 7.60933 23.3486 7.59912 23.3004 7.59913Z" fill="#B5BCD2"/>
<path d="M23.6681 14.3828H19.7158C18.2396 14.3828 17.0386 15.6744 17.0386 17.262C17.0386 18.8496 18.2395 20.1413 19.7158 20.1413H23.6681V14.3828Z" fill="#3A55A6"/>
<path d="M23.8983 13.3682H19.7158C18.2396 13.3682 17.0386 14.6597 17.0386 16.2474C17.0386 17.8349 18.2395 19.1266 19.7158 19.1266H23.8983C24.5057 19.1266 24.9999 18.5951 24.9999 17.9419V14.5529C24.9999 13.8996 24.5057 13.3682 23.8983 13.3682Z" fill="#F7B636"/>
<path d="M20.0264 14.958C19.366 14.958 18.8286 15.5359 18.8286 16.2462C18.8286 16.9565 19.366 17.5343 20.0264 17.5343C20.6868 17.5343 21.2242 16.9565 21.2242 16.2462C21.2242 15.5359 20.6868 14.958 20.0264 14.958Z" fill="#FBDB9A"/>
</svg>
