<svg width="25" height="26" viewBox="0 0 25 26" fill="none" xmlns="http://www.w3.org/2000/svg">
<path d="M22.7125 5.67329V23.776C22.7125 24.2333 22.5319 24.6718 22.2105 24.9951C21.889 25.3184 21.453 25.5001 20.9984 25.5001H6.42803C6.05713 25.5001 5.69625 25.3791 5.39953 25.1553C5.28199 25.0679 5.17675 24.965 5.0867 24.8493C4.84613 24.5438 4.7148 24.1657 4.71387 23.776V5.67329C4.71387 5.21604 4.89447 4.77751 5.21593 4.45419C5.5374 4.13086 5.9734 3.94922 6.42803 3.94922H20.9984C21.453 3.94922 21.889 4.13086 22.2105 4.45419C22.5319 4.77751 22.7125 5.21604 22.7125 5.67329Z" fill="#5E74B4"/>
<path d="M20.9981 6.10387V20.3274H18.4268C18.1997 20.3281 17.9821 20.4192 17.8216 20.5807C17.661 20.7422 17.5704 20.9611 17.5698 21.1895V23.7756H6.85627C6.74262 23.7756 6.63362 23.7302 6.55325 23.6493C6.47288 23.5685 6.42773 23.4589 6.42773 23.3446V6.10387C6.42773 5.98956 6.47288 5.87993 6.55325 5.79909C6.63362 5.71826 6.74262 5.67285 6.85627 5.67285H20.5695C20.6832 5.67285 20.7922 5.71826 20.8726 5.79909C20.9529 5.87993 20.9981 5.98956 20.9981 6.10387Z" fill="#E6E7E8"/>
<path d="M15.3549 17.9613L15.0506 19.4871L14.1421 20.4008C13.9828 20.5634 13.8936 20.7825 13.8936 21.0107C13.8936 21.2389 13.9828 21.458 14.1421 21.6206C14.2217 21.7007 14.3162 21.7643 14.4203 21.8077C14.5243 21.8511 14.6359 21.8734 14.7485 21.8734C14.8611 21.8734 14.9727 21.8511 15.0767 21.8077C15.1808 21.7643 15.2753 21.7007 15.3549 21.6206L16.2634 20.7068L17.7804 20.4008L18.0804 20.0948L20.9988 17.1596V12.2891L15.3549 17.9613Z" fill="#D8D7DA"/>
<path d="M22.7122 10.5645L20.998 12.2877V17.159L22.7122 15.4349V10.5645Z" fill="#14328C"/>
<path d="M10.576 21.8231C10.4756 22.2203 10.3182 22.6007 10.1089 22.9524L10.7217 23.7756H6.85627C6.74262 23.7756 6.63362 23.7302 6.55325 23.6494C6.47288 23.5685 6.42773 23.4589 6.42773 23.3446V15.1553H7.28481L7.48623 16.5863C7.88117 16.6872 8.25939 16.8455 8.609 17.0561L9.76177 16.1854L10.9745 17.4052L10.1089 18.5646C10.3182 18.9163 10.4756 19.2967 10.576 19.6939L11.9988 19.8965V21.6205L10.576 21.8231Z" fill="#D8D7DA"/>
<path d="M24.4956 9.48419C24.3373 9.3236 24.1491 9.19601 23.9418 9.10874C23.7344 9.02146 23.5119 8.97621 23.2871 8.97559C23.0911 8.97526 22.8966 9.01029 22.7129 9.07903C22.4722 9.16366 22.2539 9.30221 22.0743 9.48419L21.4658 10.0919L22.7129 11.3462L23.8914 12.5315L24.4956 11.9194C24.6555 11.76 24.7823 11.5704 24.8689 11.3614C24.9555 11.1524 25.0001 10.9282 25.0001 10.7018C25.0001 10.4754 24.9555 10.2512 24.8689 10.0422C24.7823 9.83326 24.6555 9.64359 24.4956 9.48419Z" fill="#E6E7E8"/>
<path d="M22.7122 11.3441L21.4651 10.0898L20.998 10.5597V10.564L20.5566 11.0036L20.998 11.4475L21.7694 12.2234L22.7122 13.1716L22.9822 13.4432L23.8907 12.5294L22.7122 11.3441Z" fill="#F9C55E"/>
<path d="M20.9986 20.3271L17.5703 23.7753V21.1892C17.571 20.9608 17.6615 20.7419 17.8221 20.5804C17.9827 20.4189 18.2003 20.3278 18.4274 20.3271H20.9986Z" fill="#D1D3D4"/>
<path d="M20.9986 20.3271V23.3443C20.9986 23.4586 20.9535 23.5682 20.8731 23.649C20.7927 23.7299 20.6837 23.7753 20.5701 23.7753H17.5703L20.9986 20.3271Z" fill="#E6E7E8"/>
<path d="M15.406 19.8458L14.4975 20.7595C14.3774 20.8796 14.2246 20.9612 14.0584 20.994C13.8922 21.0269 13.7201 21.0094 13.5637 20.9439C13.4074 20.8785 13.2738 20.7679 13.1799 20.6261C13.086 20.4844 13.036 20.3178 13.0361 20.1475C13.0357 20.0347 13.0574 19.9229 13.1 19.8186C13.1427 19.7143 13.2054 19.6195 13.2847 19.5397L14.1932 18.626L15.406 19.8458Z" fill="#787680"/>
<path d="M17.2231 19.2311L16.9232 19.5372L15.4061 19.8432L14.1934 18.6234L14.4976 17.0976L14.8019 16.7959L16.0104 18.0157H16.0147L17.2231 19.2311Z" fill="#898890"/>
<path d="M20.9984 11.4488L20.557 11.0049L14.8018 16.7978L16.0102 18.0175H16.0145L20.9984 13.0005L21.7698 12.2247L20.9984 11.4488Z" fill="#54C9A9"/>
<path d="M22.7127 13.1709L21.7699 12.2227L20.9986 12.9985L16.0146 18.0155L17.2231 19.231L20.9986 15.4337L22.7127 13.7097L22.9827 13.4424L22.7127 13.1709Z" fill="#29BB93"/>
<path d="M12.1187 10.7238C12.3373 11.0407 12.4439 11.4223 12.4215 11.8074C12.399 12.1925 12.2488 12.5589 11.9949 12.848C11.7409 13.1371 11.3979 13.3322 11.0207 13.4021C10.6435 13.4719 10.2539 13.4125 9.91418 13.2334C9.5745 13.0542 9.30437 12.7656 9.14701 12.4138C8.98965 12.062 8.95414 11.6673 9.04617 11.2928C9.1382 10.9183 9.35245 10.5857 9.65465 10.3481C9.95684 10.1106 10.3295 9.98179 10.7131 9.98242C10.9894 9.98321 11.2614 10.051 11.5061 10.1801C11.7508 10.3091 11.9609 10.4956 12.1187 10.7238Z" fill="#19B68B"/>
<path d="M8.99902 6.10254H18.4269V7.39559H8.99902V6.10254Z" fill="#F9C55E"/>
<path d="M17.8441 3.94814C17.5316 3.67095 17.1294 3.51772 16.7127 3.51712H15.4271V2.22407C15.4271 1.76682 15.2465 1.32829 14.9251 1.00497C14.6036 0.681642 14.1676 0.5 13.713 0.5C13.2583 0.5 12.8223 0.681642 12.5009 1.00497C12.1794 1.32829 11.9988 1.76682 11.9988 2.22407V3.51712H10.7132C10.2589 3.51815 9.82346 3.70012 9.50221 4.02322C9.18097 4.34633 9.00004 4.78425 8.99902 5.24119V6.10323H18.4269V5.24119C18.427 4.99633 18.3751 4.75427 18.2746 4.53125C18.1741 4.30823 18.0273 4.10941 17.8441 3.94814Z" fill="#F7B636"/>
<path d="M10.9748 24.1118L10.452 24.6377L9.76207 25.3316L8.84499 24.6377L8.60929 24.4609C8.50252 24.5257 8.39237 24.5847 8.27932 24.6377C8.02588 24.7628 7.76018 24.861 7.48652 24.9307L7.4051 25.4997H6.42803C6.05713 25.4997 5.69625 25.3787 5.39953 25.1549L5.36953 24.9307C5.27525 24.9049 5.17669 24.879 5.0867 24.8489C4.84613 24.5434 4.7148 24.1653 4.71387 23.7756V16.819C4.92497 16.7216 5.14443 16.6437 5.36953 16.5863L5.57095 15.1553H6.42803V23.3446C6.42803 23.4589 6.47318 23.5685 6.55354 23.6494C6.63391 23.7302 6.74291 23.7756 6.85657 23.7756H10.722L10.9748 24.1118Z" fill="#14328C"/>
<path d="M9.71928 20.9598C9.61888 21.3571 9.46152 21.7375 9.25217 22.0891L10.1178 23.2485L9.59501 23.7744L8.90506 24.4683L7.98798 23.7744L7.75228 23.5977C7.64551 23.6625 7.53536 23.7214 7.42231 23.7744C7.16887 23.8995 6.90317 23.9977 6.62951 24.0675L6.4281 25.4984H4.71394L4.51252 24.0675C4.11759 23.9665 3.73936 23.8082 3.38975 23.5977L2.23698 24.4683L1.02421 23.2485L1.88986 22.0891C1.68051 21.7375 1.52316 21.3571 1.42275 20.9598L0 20.7573V19.0332L1.42275 18.8306C1.52316 18.4334 1.68051 18.053 1.88986 17.7013L1.02421 16.5419L2.23698 15.3221L3.38975 16.1928C3.73936 15.9822 4.11759 15.824 4.51252 15.723L4.71394 14.292H6.4281L6.62951 15.723C7.02445 15.824 7.40267 15.9822 7.75228 16.1928L8.90506 15.3221L10.1178 16.5419L9.25217 17.7013C9.46152 18.053 9.61888 18.4334 9.71928 18.8306L11.142 19.0332V20.7573L9.71928 20.9598Z" fill="#F7B636"/>
<path d="M6.42774 17.9179C6.15687 17.8013 5.86529 17.7412 5.57066 17.7412C5.27602 17.7412 4.98445 17.8013 4.71358 17.9179C4.33129 18.0863 4.00608 18.3632 3.77771 18.7145C3.54935 19.0659 3.42773 19.4765 3.42773 19.8963C3.42773 20.3161 3.54935 20.7267 3.77771 21.0781C4.00608 21.4294 4.33129 21.7063 4.71358 21.8747C4.98445 21.9913 5.27602 22.0514 5.57066 22.0514C5.86529 22.0514 6.15687 21.9913 6.42774 21.8747C6.81003 21.7063 7.13524 21.4294 7.3636 21.0781C7.59196 20.7267 7.71358 20.3161 7.71358 19.8963C7.71358 19.4765 7.59196 19.0659 7.3636 18.7145C7.13524 18.3632 6.81003 18.0863 6.42774 17.9179Z" fill="#FFD422"/>
<path d="M13.2852 1.79199H14.1422V2.65403H13.2852V1.79199Z" fill="#CC7400"/>
<path d="M5.14201 15.584H5.99909V16.446H5.14201V15.584ZM2.2348 17.1499L2.84076 16.5404L3.44671 17.1499L2.84076 17.7593L2.2348 17.1499ZM1.28516 19.4631H2.14224V20.3252H1.28516V19.4631ZM2.23437 22.6354L2.84033 22.026L3.44628 22.6354L2.84033 23.2449L2.23437 22.6354ZM5.14201 23.3423H5.99909V24.2043H5.14201V23.3423ZM7.6884 22.6359L8.29435 22.0264L8.90031 22.6359L8.29435 23.2453L7.6884 22.6359ZM8.99887 19.4631H9.85595V20.3252H8.99887V19.4631ZM7.68883 17.1503L8.29478 16.5408L8.90074 17.1503L8.29478 17.7598L7.68883 17.1503Z" fill="#EE8700"/>
<path d="M10.4082 11.8328L12.5509 9.67773L13.1564 10.2876L11.0142 12.4423L10.4082 11.8328Z" fill="#007455"/>
<path d="M13.7129 10.4141H14.57V11.2761H13.7129V10.4141ZM15.427 10.4141H17.1412V11.2761H15.427V10.4141ZM13.7129 12.1381H16.2841V13.0002H13.7129V12.1381Z" fill="#C6C5CA"/>
</svg>
