<svg width="15" height="15" viewBox="0 0 15 15" fill="none" xmlns="http://www.w3.org/2000/svg">
<path d="M2.68585 6.01575V11.3938C2.68547 11.5348 2.71294 11.6745 2.76669 11.8048C2.82044 11.9351 2.89941 12.0536 2.99906 12.1533C3.09871 12.253 3.21708 12.3321 3.34738 12.386C3.47767 12.4398 3.61733 12.4674 3.75831 12.4671H4.81298V10.1017C4.81298 9.8045 5.00256 9.56504 5.23823 9.56504C5.4739 9.56504 5.66348 9.8045 5.66348 10.1017V12.4671H7.0384V10.1017C7.0384 9.8045 7.22798 9.56504 7.46365 9.56504C7.69931 9.56504 7.8889 9.8045 7.8889 10.1017V12.4671H9.26381V10.1017C9.26381 9.8045 9.4534 9.56504 9.68906 9.56504C9.92502 9.56504 10.1143 9.8045 10.1143 10.1017V12.4671H11.169C11.31 12.4674 11.4496 12.4398 11.5799 12.386C11.7102 12.3321 11.8286 12.253 11.9282 12.1533C12.0279 12.0536 12.1069 11.9351 12.1606 11.8048C12.2143 11.6745 12.2418 11.5348 12.2414 11.3938V6.01575M6.52215 3.54154L6.52098 3.49663C6.52098 2.96463 6.94302 2.53296 7.46365 2.53296C7.98427 2.53296 8.40631 2.96463 8.40631 3.49663C8.40631 3.51179 8.40592 3.52676 8.40515 3.54154M2.78298 3.5815H12.1443C12.2383 3.58131 12.3314 3.59968 12.4183 3.63558C12.5052 3.67147 12.5841 3.72416 12.6505 3.79064C12.717 3.85712 12.7697 3.93607 12.8055 4.02296C12.8414 4.10985 12.8597 4.20296 12.8595 4.29696V5.26763C12.8597 5.36162 12.8414 5.45474 12.8055 5.54163C12.7697 5.62851 12.717 5.70746 12.6505 5.77394C12.5841 5.84042 12.5052 5.89312 12.4183 5.92901C12.3314 5.9649 12.2383 5.98328 12.1443 5.98308H2.78298C2.68898 5.98328 2.59588 5.9649 2.509 5.92901C2.42213 5.89312 2.3432 5.84042 2.27675 5.77394C2.2103 5.70746 2.15763 5.62851 2.12178 5.54163C2.08592 5.45474 2.06758 5.36162 2.06781 5.26763V4.29696C2.06758 4.20296 2.08592 4.10985 2.12178 4.02296C2.15763 3.93607 2.2103 3.85712 2.27675 3.79064C2.3432 3.72416 2.42213 3.67147 2.509 3.63558C2.59588 3.59968 2.68898 3.58131 2.78298 3.5815Z" stroke="#4A4A4A" stroke-width="0.7" stroke-linecap="round" stroke-linejoin="round"/>
</svg>
