<svg width="21" height="20" viewBox="0 0 21 20" fill="none" xmlns="http://www.w3.org/2000/svg">
<path d="M4.66667 17.5C4.20833 17.5 3.81611 17.3369 3.49 17.0108C3.16389 16.6847 3.00056 16.2922 3 15.8333V4.16667C3 3.70833 3.16333 3.31611 3.49 2.99C3.81667 2.66389 4.20889 2.50056 4.66667 2.5H16.3333C16.7917 2.5 17.1842 2.66333 17.5108 2.99C17.8375 3.31667 18.0006 3.70889 18 4.16667V15.8333C18 16.2917 17.8369 16.6842 17.5108 17.0108C17.1847 17.3375 16.7922 17.5006 16.3333 17.5H4.66667ZM4.66667 15.8333H16.3333V13.3333H13.8333C13.4167 13.8611 12.9203 14.2708 12.3442 14.5625C11.7681 14.8542 11.1533 15 10.5 15C9.84667 15 9.23222 14.8542 8.65667 14.5625C8.08111 14.2708 7.58444 13.8611 7.16667 13.3333H4.66667V15.8333ZM10.5 13.3333C10.9444 13.3333 11.3542 13.2186 11.7292 12.9892C12.1042 12.7597 12.4097 12.4578 12.6458 12.0833C12.7292 11.9583 12.8333 11.8575 12.9583 11.7808C13.0833 11.7042 13.2222 11.6661 13.375 11.6667H16.3333V4.16667H4.66667V11.6667H7.625C7.77778 11.6667 7.91667 11.705 8.04167 11.7817C8.16667 11.8583 8.27083 11.9589 8.35417 12.0833C8.59028 12.4583 8.89583 12.7606 9.27083 12.99C9.64583 13.2194 10.0556 13.3339 10.5 13.3333Z" fill="#3A55A6"/>
</svg>
