<svg width="15" height="15" viewBox="0 0 15 15" fill="none" xmlns="http://www.w3.org/2000/svg">
<path d="M7.46364 2.25V9.25M7.46364 9.25L5.13031 6.91667M7.46364 9.25L9.79698 6.91667" stroke="#4A4A4A" stroke-linecap="round" stroke-linejoin="round"/>
<path d="M5.13031 3.41675H2.79698C2.48756 3.41675 2.19081 3.53966 1.97202 3.75846C1.75323 3.97725 1.63031 4.274 1.63031 4.58341V10.4167C1.63031 10.7262 1.75323 11.0229 1.97202 11.2417C2.19081 11.4605 2.48756 11.5834 2.79698 11.5834H12.1303C12.4397 11.5834 12.7365 11.4605 12.9553 11.2417C13.1741 11.0229 13.297 10.7262 13.297 10.4167V4.58341C13.297 4.274 13.1741 3.97725 12.9553 3.75846C12.7365 3.53966 12.4397 3.41675 12.1303 3.41675H9.79698" stroke="#4A4A4A" stroke-linecap="round" stroke-linejoin="round"/>
</svg>
