<svg width="15" height="15" viewBox="0 0 15 15" fill="none" xmlns="http://www.w3.org/2000/svg">
<path d="M4.31909 2.93359C4.26046 2.93367 4.20215 2.95709 4.14233 3.0166C4.08291 3.07584 4.06012 3.13326 4.0603 3.19141V11.8076C4.0603 11.8658 4.08361 11.9244 4.14331 11.9844C4.20249 12.0437 4.26069 12.0667 4.31909 12.0664H10.6013C10.6595 12.0664 10.7171 12.0431 10.7771 11.9834C10.8367 11.9241 10.8604 11.8664 10.8601 11.8076V5.7041L8.0896 2.93359H4.31909ZM5.70874 5.4707V6.31738C5.88797 6.14807 6.09533 5.99542 6.32886 5.85742C6.65262 5.66612 7.03078 5.57231 7.45972 5.57227C8.1542 5.57186 8.74899 5.81703 9.23804 6.30566C9.72689 6.79421 9.97273 7.38838 9.97241 8.08301C9.97201 8.7778 9.72629 9.37267 9.23804 9.86133C8.74975 10.35 8.15491 10.5957 7.45972 10.5957C6.88747 10.5952 6.37585 10.4244 5.92847 10.084C5.47994 9.74261 5.17451 9.27704 5.0105 8.69336L4.97437 8.56641H5.72241L5.74585 8.63281C5.87547 8.99352 6.0923 9.29177 6.39819 9.52832C6.7004 9.76198 7.05298 9.87884 7.45972 9.87891C7.95834 9.87891 8.38061 9.70508 8.7312 9.35449C9.08179 9.0039 9.25562 8.58163 9.25562 8.08301C9.25554 7.5846 9.08161 7.16298 8.7312 6.8125C8.38061 6.46191 7.95834 6.28711 7.45972 6.28711C7.15343 6.28755 6.87784 6.35832 6.63062 6.49707C6.44794 6.5996 6.29608 6.71796 6.17261 6.85059H7.08862V7.56641H4.99292V5.4707H5.70874ZM11.6433 11.8076C11.6433 12.1008 11.5439 12.3509 11.3445 12.5508C11.1448 12.7509 10.8943 12.85 10.6003 12.8496H4.31909C4.02567 12.8495 3.77545 12.7503 3.57593 12.5508C3.37657 12.3513 3.27752 12.101 3.2771 11.8076V3.19238C3.2771 2.89915 3.37601 2.64875 3.57593 2.44922C3.77577 2.2498 4.026 2.15085 4.31909 2.15039H8.42163L11.6433 5.37207V11.8076Z" fill="#4A4A4A" stroke="#4A4A4A" stroke-width="0.2"/>
</svg>
