<svg width="25" height="25" viewBox="0 0 25 25" fill="none" xmlns="http://www.w3.org/2000/svg">
<path d="M12.5 25C19.4036 25 25 19.4036 25 12.5C25 5.59644 19.4036 0 12.5 0C5.59644 0 0 5.59644 0 12.5C0 19.4036 5.59644 25 12.5 25Z" fill="#3A55A6"/>
<path d="M25 12.5C25 19.4033 19.4033 25 12.5 25V0C19.4033 0 25 5.59668 25 12.5Z" fill="#3A55A6"/>
<path d="M25 12.5C25 19.4033 19.4033 25 12.5 25V0C19.4033 0 25 5.59668 25 12.5Z" fill="black" fill-opacity="0.2"/>
<path d="M12.5 21.875C17.6777 21.875 21.875 17.6777 21.875 12.5C21.875 7.32233 17.6777 3.125 12.5 3.125C7.32233 3.125 3.125 7.32233 3.125 12.5C3.125 17.6777 7.32233 21.875 12.5 21.875Z" fill="#EBEEF6"/>
<path d="M21.875 12.5C21.875 17.6777 17.6777 21.875 12.5 21.875V3.125C17.6777 3.125 21.875 7.32227 21.875 12.5Z" fill="#D8DDED"/>
<path d="M12.5 18.75C15.9518 18.75 18.75 15.9518 18.75 12.5C18.75 9.04822 15.9518 6.25 12.5 6.25C9.04822 6.25 6.25 9.04822 6.25 12.5C6.25 15.9518 9.04822 18.75 12.5 18.75Z" fill="#3A55A6"/>
<path d="M18.75 12.5C18.75 15.9517 15.9517 18.75 12.5 18.75V6.25C15.9517 6.25 18.75 9.04834 18.75 12.5Z" fill="#3A55A6"/>
<path d="M18.75 12.5C18.75 15.9517 15.9517 18.75 12.5 18.75V6.25C15.9517 6.25 18.75 9.04834 18.75 12.5Z" fill="black" fill-opacity="0.2"/>
<path d="M12.5 15.625C14.2259 15.625 15.625 14.2259 15.625 12.5C15.625 10.7741 14.2259 9.375 12.5 9.375C10.7741 9.375 9.375 10.7741 9.375 12.5C9.375 14.2259 10.7741 15.625 12.5 15.625Z" fill="#EBEEF6"/>
<path d="M15.625 12.5C15.625 14.2261 14.2261 15.625 12.5 15.625V9.375C14.2261 9.375 15.625 10.7739 15.625 12.5Z" fill="#D8DDED"/>
<path d="M20.4585 5.57764L12.5 13.5361L11.4644 12.5005L12.5 11.4648L19.4224 4.54199L20.4585 5.57764Z" fill="#3A55A6"/>
<path d="M20.4585 5.57764L12.5 13.5361V11.4648L19.4224 4.54199L20.4585 5.57764Z" fill="#3A55A6"/>
<path d="M20.41 7.46465L23.8279 4.04668L21.8771 3.12275L20.9531 1.17188L17.5352 4.58984L18.4591 6.54072L20.41 7.46465Z" fill="#9CAAD3"/>
</svg>
