<svg width="25" height="26" viewBox="0 0 25 26" fill="none" xmlns="http://www.w3.org/2000/svg">
<path d="M12.5 0.5L18.737 3.63136L25 6.73726L18.737 9.86862L12.5 13L6.26305 9.86862L0 6.73726L6.26305 3.63136L12.5 0.5Z" fill="#6E85CA"/>
<path d="M20.3024 11.9304V9.10449L17.1709 10.6574V13.4833L18.8932 11.4212L20.3024 11.9304Z" fill="#D8DDED"/>
<path d="M12.5 13V25.5L25 19.2627V6.7373L20.3027 9.10492L20.1983 9.15584V11.9053L18.8935 11.4216L17.1712 13.4837V10.6579L12.5 13Z" fill="#3A55A6"/>
<path d="M12.5 25.5V13L6.26305 9.86867L0 6.7373V19.2627L12.5 25.5Z" fill="#4B65B2"/>
<path d="M4.69727 4.39475L17.1712 10.6575L20.1983 9.15543L20.3027 9.10452L7.82879 2.8418L6.26303 3.631L4.69727 4.39475Z" fill="#EBEEF6"/>
</svg>
