<svg width="25" height="26" viewBox="0 0 25 26" fill="none" xmlns="http://www.w3.org/2000/svg">
<path d="M23.4909 2.10645H21.9819V6.92454L25 5.31851V3.71248C25 2.82547 24.3244 2.10645 23.4909 2.10645Z" fill="#29BB93"/>
<path d="M23.4909 2.10645H21.9819V6.92454L25 5.31851V3.71248C25 2.82547 24.3244 2.10645 23.4909 2.10645Z" fill="black" fill-opacity="0.2"/>
<path d="M21.9816 2.10603H16.2725L15.4265 1.20558C15.2163 0.981883 14.9668 0.804435 14.6921 0.683371C14.4175 0.562307 14.1232 0.499997 13.8259 0.5H9.05442C8.221 0.5 7.54541 1.21902 7.54541 2.10603V6.92413H23.4906V3.71206C23.4906 2.82505 22.8151 2.10603 21.9816 2.10603Z" fill="#29BB93"/>
<path d="M21.9816 2.10603H16.2725L15.4265 1.20558C15.2163 0.981883 14.9668 0.804435 14.6921 0.683371C14.4175 0.562307 14.1232 0.499997 13.8259 0.5H9.05442C8.221 0.5 7.54541 1.21902 7.54541 2.10603V6.92413H23.4906V3.71206C23.4906 2.82505 22.8151 2.10603 21.9816 2.10603Z" fill="black" fill-opacity="0.2"/>
<path d="M9.05371 4.1144V6.92496H19.8809V3.71289H9.43096C9.33091 3.71289 9.23495 3.75519 9.16421 3.83049C9.09346 3.90579 9.05371 4.00791 9.05371 4.1144Z" fill="white"/>
<path d="M23.4909 3.71289L21.9819 15.8652H23.4909C24.3244 15.8652 25 15.1462 25 14.2592V5.31892C25 4.43191 24.3244 3.71289 23.4909 3.71289Z" fill="#29BB93"/>
<path d="M23.4909 3.71289L21.9819 15.8652H23.4909C24.3244 15.8652 25 15.1462 25 14.2592V5.31892C25 4.43191 24.3244 3.71289 23.4909 3.71289Z" fill="black" fill-opacity="0.2"/>
<path d="M9.05442 5.31892C8.221 5.31892 7.54541 6.03794 7.54541 6.92495V14.2592C7.54541 15.1462 8.221 15.8652 9.05442 15.8652H21.9816C22.8151 15.8652 23.4906 15.1462 23.4906 14.2592V3.71289H19.8816C19.5843 3.71289 19.29 3.7752 19.0154 3.89626C18.7407 4.01733 18.4912 4.19477 18.281 4.41847L17.435 5.31892H9.05442Z" fill="#29BB93"/>
<path d="M19.718 6.92383H18.209V11.7419L21.227 10.1359V8.52986C21.227 7.64285 20.5514 6.92383 19.718 6.92383Z" fill="#F7B636"/>
<path d="M19.718 6.92383H18.209V11.7419L21.227 10.1359V8.52986C21.227 7.64285 20.5514 6.92383 19.718 6.92383Z" fill="black" fill-opacity="0.2"/>
<path d="M18.2082 6.92342H12.4991L11.653 6.02297C11.4429 5.79927 11.1933 5.62182 10.9187 5.50075C10.6441 5.37969 10.3497 5.31738 10.0525 5.31738H5.28099C4.44756 5.31738 3.77197 6.0364 3.77197 6.92342V11.7415H19.7172V8.52945C19.7172 7.64244 19.0416 6.92342 18.2082 6.92342Z" fill="#F7B636"/>
<path d="M18.2082 6.92342H12.4991L11.653 6.02297C11.4429 5.79927 11.1933 5.62182 10.9187 5.50075C10.6441 5.37969 10.3497 5.31738 10.0525 5.31738H5.28099C4.44756 5.31738 3.77197 6.0364 3.77197 6.92342V11.7415H19.7172V8.52945C19.7172 7.64244 19.0416 6.92342 18.2082 6.92342Z" fill="black" fill-opacity="0.2"/>
<path d="M5.28174 8.93178V11.7423H16.1089V8.53027H5.65899C5.55894 8.53027 5.46298 8.57258 5.39223 8.64787C5.32148 8.72317 5.28174 8.82529 5.28174 8.93178Z" fill="white"/>
<path d="M19.718 8.53027L18.209 20.6826H19.718C20.5514 20.6826 21.227 19.9636 21.227 19.0766V10.1363C21.227 9.24929 20.5514 8.53027 19.718 8.53027Z" fill="#F7B636"/>
<path d="M19.718 8.53027L18.209 20.6826H19.718C20.5514 20.6826 21.227 19.9636 21.227 19.0766V10.1363C21.227 9.24929 20.5514 8.53027 19.718 8.53027Z" fill="black" fill-opacity="0.2"/>
<path d="M5.28099 10.1363C4.44756 10.1363 3.77197 10.8553 3.77197 11.7423V19.0766C3.77197 19.9636 4.44756 20.6826 5.28099 20.6826H18.2082C19.0416 20.6826 19.7172 19.9636 19.7172 19.0766V8.53027H16.1082C15.8109 8.53027 15.5166 8.59258 15.2419 8.71364C14.9673 8.83471 14.7178 9.01216 14.5076 9.23586L13.6615 10.1363H5.28099Z" fill="#F7B636"/>
<path d="M15.9455 11.7412H14.4365V16.5593L17.4545 14.9533V13.3472C17.4545 12.4602 16.779 11.7412 15.9455 11.7412Z" fill="#3A55A6"/>
<path d="M15.9455 11.7412H14.4365V16.5593L17.4545 14.9533V13.3472C17.4545 12.4602 16.779 11.7412 15.9455 11.7412Z" fill="black" fill-opacity="0.2"/>
<path d="M14.4362 11.7428H8.72712L7.88107 10.8423C7.67088 10.6186 7.42135 10.4412 7.14673 10.3201C6.8721 10.199 6.57776 10.1367 6.28051 10.1367H1.50901C0.675585 10.1367 0 10.8557 0 11.7428V16.5608H15.9452V13.3488C15.9452 12.4618 15.2696 11.7428 14.4362 11.7428Z" fill="#3A55A6"/>
<path d="M14.4362 11.7428H8.72712L7.88107 10.8423C7.67088 10.6186 7.42135 10.4412 7.14673 10.3201C6.8721 10.199 6.57776 10.1367 6.28051 10.1367H1.50901C0.675585 10.1367 0 10.8557 0 11.7428V16.5608H15.9452V13.3488C15.9452 12.4618 15.2696 11.7428 14.4362 11.7428Z" fill="black" fill-opacity="0.2"/>
<path d="M1.5083 13.7492V16.5597H8.72641V13.3477H1.88555C1.7855 13.3477 1.68954 13.39 1.6188 13.4653C1.54805 13.5406 1.5083 13.6427 1.5083 13.7492Z" fill="white"/>
<path d="M15.9455 13.3477L14.4365 25.5H15.9455C16.779 25.5 17.4545 24.7809 17.4545 23.8939V14.9537C17.4545 14.0667 16.779 13.3477 15.9455 13.3477Z" fill="#3A55A6"/>
<path d="M15.9455 13.3477L14.4365 25.5H15.9455C16.779 25.5 17.4545 24.7809 17.4545 23.8939V14.9537C17.4545 14.0667 16.779 13.3477 15.9455 13.3477Z" fill="black" fill-opacity="0.2"/>
<path d="M15.9452 23.8939V13.3477H8.72712C8.42987 13.3477 8.13553 13.41 7.86091 13.531C7.58628 13.6521 7.33675 13.8295 7.12656 14.0532L6.28051 14.9537H1.50901C0.675585 14.9537 0 15.6727 0 16.5597V23.8939C0 24.7809 0.675585 25.5 1.50901 25.5H14.4362C15.2696 25.5 15.9452 24.7809 15.9452 23.8939Z" fill="#3A55A6"/>
</svg>
