<svg width="25" height="25" viewBox="0 0 25 25" fill="none" xmlns="http://www.w3.org/2000/svg">
<path d="M24.7684 0.227271C24.6202 0.0817558 24.4192 4.95471e-06 24.2096 0H21.488C21.3964 7.95912e-06 21.3069 0.0266686 21.2308 0.0766113C21.1547 0.126554 21.0954 0.197536 21.0603 0.280583C21.0253 0.36363 21.0161 0.455013 21.034 0.543178C21.0518 0.631343 21.0959 0.712331 21.1606 0.775902L22.0304 1.62987L18.0555 5.53251L15.0065 2.53901C14.6449 2.18396 14.0586 2.18396 13.697 2.53901L7.21556 8.9026C6.85393 9.25759 6.85393 9.83321 7.21556 10.1882C7.3964 10.3657 7.63333 10.4545 7.8703 10.4545C8.10728 10.4545 8.3442 10.3657 8.52499 10.1882L14.3518 4.46741L17.4008 7.4609C17.7624 7.81596 18.3486 7.81596 18.7102 7.4609L23.3398 2.91549L24.2096 3.76946C24.2744 3.83303 24.3569 3.87632 24.4467 3.89386C24.5365 3.9114 24.6296 3.9024 24.7142 3.868C24.7988 3.83359 24.8711 3.77533 24.922 3.70058C24.9728 3.62583 25 3.53794 25 3.44804V0.775902C24.9999 0.570122 24.9166 0.372787 24.7684 0.227271Z" fill="#C32A2D"/>
<path d="M7.4074 12.7274H5.55555C2.48732 12.7274 0 10.2853 0 7.27286C0 4.26044 2.48732 1.81836 5.55555 1.81836H7.4074C10.4756 1.81836 12.9629 4.26044 12.9629 7.27286C12.9629 10.2853 10.4756 12.7274 7.4074 12.7274Z" fill="#29BB93"/>
<path d="M5.55555 12.7274C8.62379 12.7274 11.1111 10.2853 11.1111 7.27286C11.1111 4.26042 8.62379 1.81836 5.55555 1.81836C2.4873 1.81836 0 4.26042 0 7.27286C0 10.2853 2.4873 12.7274 5.55555 12.7274Z" fill="#F7B636"/>
<path d="M7.40697 6.3629C7.52975 6.3629 7.64751 6.31501 7.73433 6.22976C7.82116 6.14452 7.86993 6.02891 7.86993 5.90835V5.82097C7.86993 4.8666 7.07913 4.09019 6.10709 4.09019H6.01808V3.1811C6.01808 3.06055 5.96931 2.94494 5.88248 2.85969C5.79566 2.77445 5.6779 2.72656 5.55512 2.72656C5.43233 2.72656 5.31458 2.77445 5.22775 2.85969C5.14093 2.94494 5.09216 3.06055 5.09216 3.1811V4.09019H5.00315C4.0311 4.09019 3.24031 4.8666 3.24031 5.82097C3.23986 6.20708 3.3711 6.58221 3.61312 6.88655C3.85514 7.19088 4.19398 7.40688 4.57561 7.5001L6.3101 7.92584C6.49127 7.97009 6.65213 8.07263 6.76703 8.21711C6.88192 8.36159 6.94423 8.53969 6.94401 8.72299C6.94401 9.17605 6.56854 9.54469 6.10709 9.54469H5.00315C4.54169 9.54469 4.16623 9.17605 4.16623 8.72299V8.6356C4.16623 8.51505 4.11745 8.39944 4.03063 8.31419C3.94381 8.22895 3.82605 8.18106 3.70327 8.18106C3.58048 8.18106 3.46273 8.22895 3.3759 8.31419C3.28908 8.39944 3.24031 8.51505 3.24031 8.6356V8.72299C3.24031 9.67736 4.0311 10.4538 5.00315 10.4538H5.09216V11.3629C5.09216 11.4834 5.14093 11.599 5.22775 11.6843C5.31458 11.7695 5.43233 11.8174 5.55512 11.8174C5.6779 11.8174 5.79566 11.7695 5.88248 11.6843C5.96931 11.599 6.01808 11.4834 6.01808 11.3629V10.4538H6.10709C7.07913 10.4538 7.86993 9.67736 7.86993 8.72299C7.87038 8.33688 7.73913 7.96175 7.49712 7.65741C7.2551 7.35308 6.91626 7.13708 6.53463 7.04386L4.80014 6.61812C4.61897 6.57387 4.4581 6.47133 4.34321 6.32684C4.22832 6.18236 4.16601 6.00427 4.16623 5.82097C4.16623 5.3679 4.54169 4.99927 5.00315 4.99927H6.10709C6.56854 4.99927 6.94401 5.3679 6.94401 5.82097V5.90835C6.94401 6.02891 6.99278 6.14452 7.0796 6.22976C7.16643 6.31501 7.28418 6.3629 7.40697 6.3629ZM3.70327 15.4537H11.1107C11.6221 15.4537 12.0366 15.8607 12.0366 16.3628V24.09C12.0366 24.5921 11.6221 24.9991 11.1107 24.9991H3.70327C3.19187 24.9991 2.77734 24.5921 2.77734 24.09V16.3628C2.77734 15.8607 3.19187 15.4537 3.70327 15.4537Z" fill="#29BB93"/>
<path d="M3.70327 15.4541H6.48104C6.99244 15.4541 7.40697 15.8611 7.40697 16.3632V24.0904C7.40697 24.5925 6.99244 24.9995 6.48104 24.9995H3.70327C3.19187 24.9995 2.77734 24.5925 2.77734 24.0904V16.3632C2.77734 15.8611 3.19187 15.4541 3.70327 15.4541Z" fill="#F7B636"/>
<path d="M10.1857 11.8184H17.5931C18.1045 11.8184 18.519 12.2253 18.519 12.7274V24.091C18.519 24.5931 18.1045 25.0001 17.5931 25.0001H10.1857C9.67429 25.0001 9.25977 24.5931 9.25977 24.091V12.7274C9.25977 12.2253 9.67429 11.8184 10.1857 11.8184Z" fill="#3A55A6"/>
<path d="M10.1857 11.8184H12.9635C13.4749 11.8184 13.8894 12.2253 13.8894 12.7274V24.091C13.8894 24.5931 13.4749 25.0001 12.9635 25.0001H10.1857C9.67429 25.0001 9.25977 24.5931 9.25977 24.091V12.7274C9.25977 12.2253 9.67429 11.8184 10.1857 11.8184Z" fill="#5B76C5"/>
<path d="M16.6662 8.18164H24.0736C24.585 8.18164 24.9995 8.58863 24.9995 9.09072V24.0906C24.9995 24.5927 24.585 24.9997 24.0736 24.9997H16.6662C16.1548 24.9997 15.7402 24.5927 15.7402 24.0906V9.09072C15.7402 8.58863 16.1548 8.18164 16.6662 8.18164Z" fill="#29BB93"/>
<path d="M16.6662 8.18164H19.4439C19.9553 8.18164 20.3699 8.58863 20.3699 9.09072V24.0906C20.3699 24.5927 19.9553 24.9997 19.4439 24.9997H16.6662C16.1548 24.9997 15.7402 24.5927 15.7402 24.0906V9.09072C15.7402 8.58863 16.1548 8.18164 16.6662 8.18164Z" fill="#F7B636"/>
</svg>
