<svg width="25" height="25" viewBox="0 0 25 25" fill="none" xmlns="http://www.w3.org/2000/svg">
<path d="M22.561 2.29883H2.43902C1.09199 2.29883 0 3.32807 0 4.59769V22.7013C0 23.9709 1.09199 25.0001 2.43902 25.0001H22.561C23.908 25.0001 25 23.9709 25 22.7013V4.59769C25 3.32807 23.908 2.29883 22.561 2.29883Z" fill="#6177B8"/>
<path d="M14.939 4.59773C14.6156 4.59773 14.3054 4.47663 14.0767 4.26107C13.848 4.04551 13.7195 3.75315 13.7195 3.4483V1.14943C13.7195 0.844585 13.848 0.552222 14.0767 0.336661C14.3054 0.121101 14.6156 0 14.939 0C15.2624 0 15.5726 0.121101 15.8013 0.336661C16.03 0.552222 16.1585 0.844585 16.1585 1.14943V3.4483C16.1585 3.75315 16.03 4.04551 15.8013 4.26107C15.5726 4.47663 15.2624 4.59773 14.939 4.59773ZM19.817 4.59773C19.4936 4.59773 19.1834 4.47663 18.9547 4.26107C18.726 4.04551 18.5975 3.75315 18.5975 3.4483V1.14943C18.5975 0.844585 18.726 0.552222 18.9547 0.336661C19.1834 0.121101 19.4936 0 19.817 0C20.1405 0 20.4507 0.121101 20.6794 0.336661C20.9081 0.552222 21.0365 0.844585 21.0365 1.14943V3.4483C21.0365 3.75315 20.9081 4.04551 20.6794 4.26107C20.4507 4.47663 20.1405 4.59773 19.817 4.59773ZM10.0609 4.59773C9.7375 4.59773 9.42732 4.47663 9.19861 4.26107C8.96991 4.04551 8.84143 3.75315 8.84143 3.4483V1.14943C8.84143 0.844585 8.96991 0.552222 9.19861 0.336661C9.42732 0.121101 9.7375 0 10.0609 0C10.3844 0 10.6946 0.121101 10.9233 0.336661C11.152 0.552222 11.2805 0.844585 11.2805 1.14943V3.4483C11.2805 3.75315 11.152 4.04551 10.9233 4.26107C10.6946 4.47663 10.3844 4.59773 10.0609 4.59773ZM5.18289 4.59773C4.85946 4.59773 4.54927 4.47663 4.32057 4.26107C4.09186 4.04551 3.96338 3.75315 3.96338 3.4483V1.14943C3.96338 0.844585 4.09186 0.552222 4.32057 0.336661C4.54927 0.121101 4.85946 0 5.18289 0C5.50633 0 5.81651 0.121101 6.04522 0.336661C6.27392 0.552222 6.4024 0.844585 6.4024 1.14943V3.4483C6.4024 3.75315 6.27392 4.04551 6.04522 4.26107C5.81651 4.47663 5.50633 4.59773 5.18289 4.59773Z" fill="#3A55A6"/>
<path d="M7.01237 13.5059C6.78713 13.5085 6.56924 13.4304 6.40262 13.2876L4.57335 11.7588C4.48367 11.6833 4.41063 11.5919 4.35842 11.4899C4.30621 11.3878 4.27584 11.277 4.26904 11.1639C4.26225 11.0507 4.27916 10.9375 4.31882 10.8305C4.35848 10.7235 4.42011 10.6249 4.50018 10.5404C4.58025 10.4559 4.67721 10.387 4.78551 10.3378C4.89381 10.2886 5.01133 10.26 5.13137 10.2536C5.2514 10.2472 5.3716 10.2631 5.4851 10.3005C5.5986 10.3379 5.70318 10.396 5.79286 10.4714L7.01237 11.4485L9.4514 9.00016C9.62289 8.83873 9.85536 8.74805 10.0977 8.74805C10.3401 8.74805 10.5726 8.83873 10.7441 9.00016C10.9154 9.1618 11.0116 9.38091 11.0116 9.60936C11.0116 9.83781 10.9154 10.0569 10.7441 10.2186L7.6953 13.2646C7.60512 13.3468 7.49796 13.4107 7.38047 13.4522C7.26298 13.4937 7.13769 13.512 7.01237 13.5059Z" fill="#F5AB1B"/>
<path d="M19.8169 10.0572H13.7193C13.4767 10.0572 13.2441 9.96633 13.0726 9.80466C12.9011 9.64299 12.8047 9.42372 12.8047 9.19508C12.8047 8.96645 12.9011 8.74717 13.0726 8.5855C13.2441 8.42383 13.4767 8.33301 13.7193 8.33301H19.8169C20.0595 8.33301 20.2921 8.42383 20.4636 8.5855C20.6352 8.74717 20.7315 8.96645 20.7315 9.19508C20.7315 9.42372 20.6352 9.64299 20.4636 9.80466C20.2921 9.96633 20.0595 10.0572 19.8169 10.0572ZM17.3779 13.5055H13.7193C13.4767 13.5055 13.2441 13.4146 13.0726 13.253C12.9011 13.0913 12.8047 12.872 12.8047 12.6434C12.8047 12.4147 12.9011 12.1955 13.0726 12.0338C13.2441 11.8721 13.4767 11.7813 13.7193 11.7813H17.3779C17.6204 11.7813 17.8531 11.8721 18.0246 12.0338C18.1961 12.1955 18.2925 12.4147 18.2925 12.6434C18.2925 12.872 18.1961 13.0913 18.0246 13.253C17.8531 13.4146 17.6204 13.5055 17.3779 13.5055Z" fill="white"/>
<path d="M7.01238 21.5518C6.78713 21.5544 6.56924 21.4763 6.40262 21.3334L4.57335 19.8047C4.39223 19.6523 4.28276 19.4383 4.26904 19.2098C4.25532 18.9813 4.33846 18.757 4.50018 18.5863C4.6619 18.4156 4.88894 18.3124 5.13137 18.2995C5.37379 18.2865 5.61174 18.3649 5.79286 18.5173L7.01238 19.4944L9.4514 17.0461C9.62289 16.8846 9.85536 16.7939 10.0977 16.7939C10.3401 16.7939 10.5726 16.8846 10.7441 17.0461C10.9154 17.2077 11.0116 17.4268 11.0116 17.6553C11.0116 17.8837 10.9154 18.1028 10.7441 18.2645L7.6953 21.3105C7.60512 21.3927 7.49796 21.4566 7.38047 21.4981C7.26298 21.5396 7.13769 21.5579 7.01238 21.5518Z" fill="#F5AB1B"/>
<path d="M19.8169 18.104H13.7193C13.4767 18.104 13.2441 18.0132 13.0726 17.8515C12.9011 17.6899 12.8047 17.4706 12.8047 17.242C12.8047 17.0133 12.9011 16.794 13.0726 16.6324C13.2441 16.4707 13.4767 16.3799 13.7193 16.3799H19.8169C20.0595 16.3799 20.2921 16.4707 20.4636 16.6324C20.6352 16.794 20.7315 17.0133 20.7315 17.242C20.7315 17.4706 20.6352 17.6899 20.4636 17.8515C20.2921 18.0132 20.0595 18.104 19.8169 18.104ZM17.3779 21.5523H13.7193C13.4767 21.5523 13.2441 21.4615 13.0726 21.2998C12.9011 21.1382 12.8047 20.9189 12.8047 20.6903C12.8047 20.4616 12.9011 20.2423 13.0726 20.0807C13.2441 19.919 13.4767 19.8282 13.7193 19.8282H17.3779C17.6204 19.8282 17.8531 19.919 18.0246 20.0807C18.1961 20.2423 18.2925 20.4616 18.2925 20.6903C18.2925 20.9189 18.1961 21.1382 18.0246 21.2998C17.8531 21.4615 17.6204 21.5523 17.3779 21.5523Z" fill="white"/>
</svg>
