<svg width="25" height="25" viewBox="0 0 25 25" fill="none" xmlns="http://www.w3.org/2000/svg">
<path fill-rule="evenodd" clip-rule="evenodd" d="M17.3428 10.9287H23.7334C23.7334 9.48457 23.9785 8.41421 22.272 8.27618C22.189 8.2693 22.1226 8.22608 22.0864 8.15633C22.0518 8.08657 22.0601 8.00994 22.1074 7.94756L22.3911 7.57276C22.4409 7.50743 22.4463 7.42785 22.4077 7.35712C22.3677 7.28589 22.2944 7.24414 22.2085 7.24414H20.1514C18.6992 7.24414 17.3428 8.1072 17.3428 9.55972V10.9287Z" fill="#231915"/>
<path fill-rule="evenodd" clip-rule="evenodd" d="M17.8618 10.4082H23.2144C23.501 10.4082 23.7334 10.642 23.7334 10.9289V11.5945C23.7334 11.8814 23.501 12.1166 23.2144 12.1166H17.8618C17.5752 12.1166 17.3428 11.8814 17.3428 11.5945V10.9289C17.3428 10.6425 17.5757 10.4082 17.8618 10.4082Z" fill="#E2AA73"/>
<path fill-rule="evenodd" clip-rule="evenodd" d="M19.3765 12.9727H21.7158V13.8888C21.7158 14.3397 21.9595 14.7243 22.3647 14.9149C23.4609 15.4287 25 15.5501 25 16.977V20.3315C25 20.6032 24.7812 20.8232 24.5112 20.8232H16.5791C16.3105 20.8232 16.0903 20.6032 16.0903 20.3315V16.977C16.0903 15.5496 17.6309 15.4287 18.7271 14.9149C19.1328 14.7243 19.376 14.3397 19.376 13.8888V12.9727H19.3765Z" fill="#8497CE"/>
<path fill-rule="evenodd" clip-rule="evenodd" d="M18.3188 20.8225H16.5791C16.3105 20.8225 16.0903 20.6024 16.0903 20.3308V16.9763C16.0903 16.6614 16.165 16.4109 16.2939 16.2051C16.5098 16.2871 16.7246 16.378 16.9321 16.4865C17.7983 16.939 18.3188 17.6144 18.3188 18.6336V20.8225Z" fill="#7088CD"/>
<path fill-rule="evenodd" clip-rule="evenodd" d="M19.3765 12.9727H21.7158V13.8888C21.7158 14.0558 21.749 14.213 21.8115 14.3554V15.9637H19.2744V14.3692C19.3408 14.2228 19.377 14.0617 19.377 13.8888V12.9727H19.3765Z" fill="#FBBD80"/>
<path fill-rule="evenodd" clip-rule="evenodd" d="M19.3765 12.9727H21.7158V13.8888C21.7158 14.0209 21.7368 14.1462 21.7754 14.2636C21.408 14.4515 21.0015 14.5493 20.5894 14.549H20.4897C20.0688 14.549 19.6689 14.4488 19.3145 14.269C19.3545 14.1506 19.377 14.0224 19.377 13.8888V12.9727H19.3765Z" fill="#E2AA73"/>
<path fill-rule="evenodd" clip-rule="evenodd" d="M21.0332 9.50629L21.3198 9.69836C21.4722 9.80151 21.6299 9.85014 21.8125 9.85014H21.9814C22.3345 9.85014 22.6221 10.14 22.6221 10.4946V11.8956C22.6221 13.0204 21.707 13.941 20.5889 13.941H20.4893C19.3711 13.941 18.4561 13.0204 18.4561 11.8956V10.4946C18.4561 10.1395 18.7441 9.85014 19.0967 9.85014H19.2656C19.4482 9.85014 19.606 9.80151 19.7583 9.69836L20.0464 9.50629C20.3506 9.29999 20.7271 9.29999 21.0332 9.50629Z" fill="#FBBD80"/>
<path fill-rule="evenodd" clip-rule="evenodd" d="M20.5459 16.4707L20.0142 17.1943L19.4053 20.8233H21.6865L21.0757 17.1943L20.5459 16.4707Z" fill="#3A55A6"/>
<path fill-rule="evenodd" clip-rule="evenodd" d="M21.7681 15.4688L21.0757 17.1939H20.0142L19.3237 15.4688H20.5459H21.7681Z" fill="#223C55"/>
<path fill-rule="evenodd" clip-rule="evenodd" d="M18.77 14.8924C19.0083 14.7701 19.1851 14.5776 19.2847 14.3438L20.3687 15.4686L19 16.761L18.77 14.8924ZM22.3203 14.8924C22.0835 14.7701 21.9053 14.5776 21.8057 14.3438L20.7231 15.4686L22.0908 16.761L22.3203 14.8924Z" fill="#3A55A6"/>
<path fill-rule="evenodd" clip-rule="evenodd" d="M1.25293 10.9287H7.64355C7.64355 9.48457 7.88867 8.41421 6.18213 8.27618C6.09912 8.2693 6.03271 8.22608 5.99805 8.15633C5.96191 8.08657 5.97021 8.00994 6.01758 7.94756L6.30127 7.57276C6.35107 7.50743 6.35645 7.42785 6.31787 7.35712C6.27783 7.28589 6.20459 7.24414 6.11865 7.24414H4.06103C2.60889 7.24414 1.25244 8.1072 1.25244 9.55972V10.9287H1.25293Z" fill="#231915"/>
<path fill-rule="evenodd" clip-rule="evenodd" d="M1.77197 10.4082H7.12549C7.41064 10.4082 7.64307 10.642 7.64307 10.9289V11.5945C7.64307 11.8814 7.41064 12.1166 7.12549 12.1166H1.77197C1.48682 12.1166 1.25293 11.8814 1.25293 11.5945V10.9289C1.25293 10.6425 1.48682 10.4082 1.77197 10.4082Z" fill="#E2AA73"/>
<path fill-rule="evenodd" clip-rule="evenodd" d="M3.28613 12.9727H5.62549V13.8888C5.62549 14.3397 5.86914 14.7243 6.27441 14.9149C7.37061 15.4287 8.90967 15.5501 8.90967 16.977V20.3315C8.90967 20.6032 8.69092 20.8232 8.4209 20.8232H0.48877C0.220215 20.8232 0 20.6032 0 20.3315V16.977C0 15.5496 1.54053 15.4287 2.63672 14.9149C3.04248 14.7243 3.28564 14.3397 3.28564 13.8888V12.9727H3.28613Z" fill="#8497CE"/>
<path fill-rule="evenodd" clip-rule="evenodd" d="M8.70752 16.2051C8.83496 16.4114 8.90967 16.6619 8.90967 16.9763V20.3308C8.90967 20.6024 8.69092 20.8225 8.4209 20.8225H6.68262V18.6336C6.68262 17.6144 7.20166 16.939 8.06934 16.4865C8.27686 16.3775 8.49023 16.2871 8.70752 16.2051Z" fill="#7088CD"/>
<path fill-rule="evenodd" clip-rule="evenodd" d="M3.28613 12.9727H5.62549V13.8888C5.62549 14.0558 5.65869 14.213 5.72119 14.3554V15.9637H3.18359V14.3692C3.25 14.2228 3.28613 14.0617 3.28613 13.8888V12.9727Z" fill="#FBBD80"/>
<path fill-rule="evenodd" clip-rule="evenodd" d="M3.28613 12.9727H5.62549V13.8888C5.62549 14.0209 5.64648 14.1462 5.68506 14.2636C5.31762 14.4515 4.91121 14.5493 4.49902 14.549H4.40088C3.97852 14.549 3.57861 14.4488 3.22461 14.269C3.26611 14.1506 3.28711 14.0224 3.28711 13.8888V12.9727H3.28613Z" fill="#E2AA73"/>
<path fill-rule="evenodd" clip-rule="evenodd" d="M4.94287 9.50629L5.22949 9.69836C5.38184 9.80151 5.53955 9.85014 5.72363 9.85014H5.89111C6.24414 9.85014 6.53174 10.14 6.53174 10.4946V11.8956C6.53174 13.0204 5.6167 13.941 4.49853 13.941H4.40039C3.28076 13.941 2.36572 13.0204 2.36572 11.8956V10.4946C2.36572 10.1395 2.65381 9.85014 3.00635 9.85014H3.17529C3.35791 9.85014 3.51563 9.80151 3.66797 9.69836L3.95605 9.50629C4.26025 9.29999 4.63672 9.29999 4.94287 9.50629Z" fill="#FBBD80"/>
<path fill-rule="evenodd" clip-rule="evenodd" d="M4.45557 16.4707L3.92432 17.1943L3.31494 20.8233H5.59619L4.98584 17.1943L4.45557 16.4707Z" fill="#3A55A6"/>
<path fill-rule="evenodd" clip-rule="evenodd" d="M5.67773 15.4688L4.98584 17.1939H3.92432L3.2334 15.4688H4.45557H5.67773Z" fill="#223C55"/>
<path fill-rule="evenodd" clip-rule="evenodd" d="M2.68115 14.8924C2.91797 14.7701 3.09521 14.5776 3.19482 14.3438L4.27881 15.4686L2.91016 16.761L2.68115 14.8924ZM6.22998 14.8924C5.99316 14.7701 5.81494 14.5776 5.71631 14.3438L4.63232 15.4686L6 16.761L6.22998 14.8924Z" fill="#3A55A6"/>
<path fill-rule="evenodd" clip-rule="evenodd" d="M12.8034 0.222029L13.3791 2.01692L15.2531 2.01398C15.3927 2.0125 15.5133 2.10043 15.5563 2.23404C15.5993 2.36765 15.5534 2.50961 15.4401 2.59214L13.9215 3.69786L14.5041 5.48981C14.547 5.62489 14.5026 5.76538 14.3893 5.8479C14.276 5.93141 14.1276 5.93141 14.0143 5.8479L12.5001 4.73628L10.986 5.84741C10.8727 5.93092 10.7257 5.93092 10.6125 5.84741C10.4992 5.76538 10.4533 5.6244 10.4977 5.48932L11.0802 3.69737L9.5607 2.59164C9.44742 2.50961 9.40152 2.36765 9.44595 2.23355C9.48892 2.09994 9.60806 2.01201 9.74771 2.01349L11.6232 2.01643L12.1989 0.221537C12.2418 0.0879273 12.361 0 12.5006 0C12.6413 0.000491214 12.7604 0.0884185 12.8034 0.222029Z" fill="#F5AB1B"/>
<path fill-rule="evenodd" clip-rule="evenodd" d="M14.442 5.79976C14.4269 5.81646 14.4088 5.83317 14.3893 5.84692C14.276 5.93043 14.1276 5.93043 14.0143 5.84692L12.7462 4.91558L12.9928 4.73579L14.442 5.79976ZM11.0509 5.79976L10.986 5.84692C10.8727 5.93043 10.7257 5.93043 10.6125 5.84692C10.4992 5.76489 10.4533 5.62391 10.4977 5.48882L11.0802 3.69688L9.5607 2.59115C9.44742 2.50912 9.40152 2.36716 9.44595 2.23306C9.48892 2.09945 9.60806 2.01152 9.74771 2.01299H10.2155C10.0856 2.02282 9.9772 2.1078 9.93716 2.23306C9.89419 2.36667 9.94009 2.50863 10.0534 2.59115L11.5719 3.69688L10.9894 5.48882C10.9528 5.60033 10.9777 5.71626 11.0509 5.79976ZM11.6227 2.01496L12.1984 0.221538C12.2414 0.0879273 12.3605 0 12.5001 0C12.5998 0 12.6886 0.0432268 12.7467 0.116909C12.7218 0.146382 12.7023 0.18224 12.6901 0.221538L12.1144 2.01643L11.6227 2.01496Z" fill="#E6BF00"/>
<path fill-rule="evenodd" clip-rule="evenodd" d="M9.03272 11.558H15.9517C15.9517 9.8677 16.2173 8.61462 14.3682 8.45448C14.2798 8.44613 14.2061 8.39455 14.1689 8.31399C14.1313 8.23196 14.1396 8.14256 14.1909 8.06888L14.498 7.63022C14.5522 7.55359 14.5576 7.46026 14.5146 7.37676C14.4731 7.29472 14.3931 7.24609 14.3003 7.24609H12.0732C10.501 7.24609 9.03223 8.25554 9.03223 9.95563V11.558H9.03272Z" fill="#231915"/>
<path fill-rule="evenodd" clip-rule="evenodd" d="M9.62793 10.9453H15.3579C15.6914 10.9453 15.9653 11.2209 15.9653 11.5564V12.335C15.9653 12.6705 15.6914 12.946 15.3579 12.946H9.62793C9.29297 12.946 9.02051 12.6705 9.02051 12.335V11.5564C9.02051 11.2214 9.29297 10.9453 9.62793 10.9453Z" fill="#CB9968"/>
<path fill-rule="evenodd" clip-rule="evenodd" d="M11.1323 13.9473H13.8687V15.0211C13.8687 15.5471 14.1538 15.9986 14.6284 16.2211C15.9116 16.8228 17.7134 16.9633 17.7134 18.6339V23.1354H7.2876V18.6339C7.2876 16.9628 9.08984 16.8223 10.3716 16.2211C10.8462 15.9981 11.1328 15.5471 11.1328 15.0211V13.9473H11.1323Z" fill="#E2E7F0"/>
<path fill-rule="evenodd" clip-rule="evenodd" d="M11.1323 13.9473H13.8687V15.0211C13.8687 15.4067 14.0225 15.7535 14.292 15.9971V16.87H10.7324V15.976C10.9873 15.7323 11.1323 15.3954 11.1323 15.0206V13.9473Z" fill="#CB9968"/>
<path fill-rule="evenodd" clip-rule="evenodd" d="M11.1323 13.9473H13.8687V15.0211C13.8687 15.1424 13.8838 15.2608 13.9131 15.3718C13.4915 15.5901 13.024 15.7038 12.5498 15.7034H12.4351C11.9661 15.7038 11.5036 15.5927 11.0854 15.3792C11.1157 15.2652 11.1323 15.1453 11.1323 15.0216V13.9473Z" fill="#B78A5E"/>
<path fill-rule="evenodd" clip-rule="evenodd" d="M13.0703 9.88877L13.4067 10.1142C13.5854 10.2356 13.7695 10.2911 13.9839 10.2911H14.1807C14.5947 10.2911 14.9307 10.6295 14.9307 11.0456V12.6843C14.9307 14.0017 13.8594 15.0794 12.5498 15.0794H12.4351C11.1255 15.0794 10.0557 14.0017 10.0557 12.6843V11.0456C10.0557 10.629 10.3921 10.2911 10.8057 10.2911H11.0024C11.2168 10.2911 11.4009 10.2356 11.5796 10.1142L11.916 9.88877C12.2729 9.64906 12.7134 9.64906 13.0703 9.88877Z" fill="#FBBD80"/>
<path fill-rule="evenodd" clip-rule="evenodd" d="M12.5 18.041L11.8799 18.8888L11.1655 22.2389L11.2627 23.0259H13.7388L13.8354 22.2389L13.1216 18.8888L12.5 18.041Z" fill="#3A55A6"/>
<path fill-rule="evenodd" clip-rule="evenodd" d="M13.9297 16.8691L13.1216 18.888H11.8799L11.0703 16.8691H12.5H13.9297Z" fill="#223C55"/>
<path fill-rule="evenodd" clip-rule="evenodd" d="M10.4238 16.1952C10.7007 16.0518 10.9082 15.8263 11.0244 15.5547L12.2935 16.8706L10.6919 18.3816L10.4238 16.1952ZM14.5776 16.1952C14.2993 16.0518 14.0918 15.8263 13.9756 15.5547L12.7075 16.8706L14.3091 18.3816L14.5776 16.1952Z" fill="#3A55A6"/>
<path fill-rule="evenodd" clip-rule="evenodd" d="M17.7139 20.9418V24.0286C17.7139 24.3557 17.5675 24.6386 17.2999 24.8248C17.0328 25.0115 16.7198 25.0503 16.4141 24.9363C14.1095 24.0718 11.8053 23.2058 9.50056 22.3407C8.90242 22.1153 8.59529 21.4384 8.81844 20.8357C9.04256 20.2339 9.71541 19.925 10.3145 20.1494L15.3887 22.0558V20.9418H17.7139Z" fill="#FBBD80"/>
<path fill-rule="evenodd" clip-rule="evenodd" d="M7.2876 20.9418V24.0286C7.2876 24.3557 7.43311 24.6386 7.7002 24.8248C7.96875 25.0115 8.28174 25.0503 8.58594 24.9363C10.8906 24.0718 13.1948 23.2058 15.4995 22.3407C16.0986 22.1153 16.4062 21.4384 16.1816 20.8357C15.959 20.2339 15.2861 19.925 14.687 20.1494L9.61133 22.0558V20.9418H7.2876Z" fill="#FBBD80"/>
<path fill-rule="evenodd" clip-rule="evenodd" d="M9.57276 18.9688H9.65039C9.79981 18.9688 9.92188 19.0911 9.92188 19.2419V20.0759C9.7037 20.0746 9.48947 20.1345 9.30322 20.2489V19.2424C9.30274 19.0911 9.42432 18.9688 9.57276 18.9688ZM15.4272 18.9688H15.3496C15.2017 18.9688 15.0796 19.0911 15.0796 19.2419V20.0759C15.2983 20.0745 15.5127 20.1359 15.6982 20.2489V19.2424C15.6983 19.2065 15.6914 19.1709 15.6778 19.1378C15.6643 19.1046 15.6443 19.0744 15.6191 19.049C15.594 19.0236 15.5641 19.0034 15.5311 18.9897C15.4982 18.9759 15.4629 18.9688 15.4272 18.9688Z" fill="#A5A8AF"/>
<path fill-rule="evenodd" clip-rule="evenodd" d="M13.3855 23.7976L12.4998 23.4651L15.4993 22.3402C16.0642 22.1285 16.3684 21.5145 16.2151 20.9407H16.8489C16.99 21.7704 16.5276 22.6187 15.7166 22.9238L13.3855 23.7976ZM11.6429 20.6465L12.4998 20.9697L8.91775 22.3146L8.60232 22.433C8.24539 22.0347 8.07791 21.4835 8.17166 20.9402H8.78494C8.71731 21.1921 8.73641 21.4596 8.83914 21.6992L11.6429 20.6465Z" fill="#CB9968"/>
</svg>
